<?xml version="1.0" encoding="utf-8"?>
<!-- Generator: Adobe Illustrator 24.3.0, SVG Export Plug-In . SVG Version: 6.00 Build 0)  -->
<svg version="1.1" id="圖層_1" xmlns="http://www.w3.org/2000/svg" xmlns:xlink="http://www.w3.org/1999/xlink" x="0px" y="0px"
	 viewBox="0 0 350 350" style="enable-background:new 0 0 350 350;" xml:space="preserve">
<style type="text/css">
	.st0{fill:#0C3755;}
	.st1{fill:#50A7B7;}
	.st2{fill:#AB1F24;}
	.st3{fill:#FFFFFF;}
	.st4{fill:#D0D2D3;}
	.st5{fill:#1C2D5B;}
</style>
<g>
	<path class="st0" d="M34.5,47.4c0,0-13.3,16.9-10.8,42.9c1.1,11.4-10.4,22.7-13.2,28c-3.2,6,0,9.4,11.4,11.9
		c-0.3,3.2-2.6,6.9-2.6,8.7c0,1.8,2.1,3.7,4.8,3.7c2.8,0-6,1.4-2.8,5.5c3.2,4.1,3.2,3.7,2.1,9.2c-1.1,5.5-0.2,16.5,18.1,17.7
		c14.9,0.9,16.5,1.9,17.5,4.4c2.8,7.3,5,38.3,0.9,46.4c50.2,1,85.9-30,83.8-33.6c-2.5-4.2-4-9.1-4.4-18.7
		c-0.3-6.4-0.8-16.1,0.5-24.6c0.9-5.9,46.4-57.2,4.6-110.7C126.5,15.4,68.7,1.8,34.5,47.4z"/>
	<path class="st1" d="M292.3,119.8c-4.9,0-9.6,0.7-14.1,2.1c-4.1-26.9-27.3-47.5-55.3-47.5c-28,0-51.2,20.6-55.3,47.5
		c-4.5-1.4-9.2-2.1-14.1-2.1c-26.7,0-48.3,21.7-48.3,48.4c0,26.7,21.6,48.3,48.3,48.3h138.7c26.7,0,48.4-21.6,48.4-48.3
		C340.6,141.5,319,119.8,292.3,119.8z"/>
	<g>
		<path class="st2" d="M94.7,77.4l5.7-0.3c0.2,0,0.4,0,0.6,0c0.6,1.2,1.4,2.4,2.2,3.4c0.2,0.4,0.2,0.9-0.1,1.3l-2,5.3
			c-0.3,0.6-0.2,1.3,0.4,1.6l0,0l4.9,3c0.6,0.3,1.3,0.2,1.6-0.4l3.8-4.3c0.1-0.2,0.2-0.3,0.4-0.4c1.3,0.4,2.6,0.7,4,0.8
			c0.4,0.2,0.7,0.5,0.9,1l2.3,5.2c0.2,0.6,0.8,1,1.5,0.9l0,0l5.6-1.4c0.6-0.2,1-0.8,0.9-1.4L127,86c0-0.2,0-0.4,0-0.6
			c1.2-0.6,2.4-1.4,3.4-2.2c0.4-0.2,0.9-0.2,1.3,0.1l5.3,2c0.6,0.3,1.3,0.2,1.7-0.4l0,0l3-4.9c0.3-0.6,0.2-1.3-0.4-1.7l-4.3-3.8
			c-0.2-0.1-0.3-0.2-0.4-0.4c0.4-1.3,0.7-2.6,0.8-4c0.2-0.4,0.5-0.7,1-0.9l5.2-2.3c0.6-0.2,1-0.8,0.9-1.5l0,0l-1.4-5.6
			c-0.2-0.6-0.8-1-1.5-0.9l-5.7,0.3c-0.2,0-0.4,0-0.6,0c-0.6-1.2-1.4-2.4-2.2-3.4c-0.2-0.4-0.1-0.9,0.1-1.3l2-5.3
			c0.3-0.6,0.2-1.3-0.4-1.6l0,0l-4.9-3c-0.6-0.3-1.3-0.2-1.7,0.4l-3.8,4.3c-0.1,0.2-0.2,0.3-0.4,0.4c-1.3-0.4-2.6-0.7-4-0.8
			c-0.4-0.2-0.7-0.5-0.9-1l-2.3-5.2c-0.2-0.6-0.8-1-1.5-0.9l0,0l-5.6,1.4c-0.6,0.2-1,0.8-0.9,1.5l0.3,5.7c0,0.2,0,0.4,0,0.6
			c-1.2,0.6-2.4,1.4-3.4,2.2c-0.4,0.2-0.9,0.2-1.3-0.1l-5.3-2c-0.6-0.3-1.3-0.2-1.7,0.4l0,0l-3,4.9c-0.3,0.6-0.2,1.3,0.4,1.7
			l4.3,3.8c0.2,0.1,0.3,0.2,0.4,0.4c-0.4,1.3-0.7,2.6-0.8,4c-0.2,0.4-0.5,0.7-1,0.9l-5.2,2.3c-0.6,0.2-1,0.8-0.9,1.5l0,0l1.4,5.6
			C93.4,77.1,94,77.5,94.7,77.4z M116.2,60.2c4.4-1.1,8.9,1.6,10,6.1c1.1,4.4-1.6,8.9-6.1,10c-4.4,1.1-8.9-1.6-10-6.1
			C109.1,65.8,111.8,61.3,116.2,60.2z"/>
	</g>
	<g>
		<path class="st3" d="M65.2,105.6l4-0.2c0.1,0,0.3,0,0.4,0c0.4,0.9,1,1.7,1.6,2.4c0.1,0.3,0.1,0.6-0.1,0.9l-1.4,3.8
			c-0.2,0.4-0.1,0.9,0.3,1.2l0,0l3.5,2.1c0.4,0.2,0.9,0.1,1.2-0.3l2.7-3c0.1-0.1,0.2-0.2,0.3-0.3c0.9,0.3,1.9,0.5,2.8,0.6
			c0.3,0.1,0.5,0.4,0.6,0.7l1.6,3.7c0.1,0.5,0.6,0.7,1,0.6l0,0l4-1c0.5-0.1,0.7-0.6,0.6-1l-0.2-4c0-0.1,0-0.3,0-0.4
			c0.9-0.4,1.7-1,2.4-1.6c0.3-0.1,0.6-0.1,0.9,0.1l3.8,1.4c0.4,0.2,0.9,0.1,1.2-0.3l0,0l2.1-3.5c0.2-0.4,0.1-0.9-0.3-1.2l-3-2.7
			c-0.1-0.1-0.2-0.2-0.3-0.3c0.3-0.9,0.5-1.9,0.6-2.8c0.1-0.3,0.4-0.5,0.7-0.6l3.7-1.6c0.5-0.1,0.7-0.6,0.6-1l0,0l-1-4
			c-0.1-0.5-0.6-0.7-1-0.6l-4,0.2c-0.1,0-0.3,0-0.4,0c-0.4-0.9-1-1.7-1.6-2.4c-0.1-0.3-0.1-0.6,0.1-0.9l1.4-3.8
			c0.2-0.4,0.1-0.9-0.3-1.2l0,0l-3.5-2.1c-0.4-0.2-0.9-0.1-1.2,0.3l-2.7,3c-0.1,0.1-0.2,0.2-0.3,0.3c-0.9-0.3-1.9-0.5-2.8-0.6
			c-0.3-0.1-0.5-0.4-0.6-0.7l-1.6-3.7c-0.1-0.5-0.6-0.7-1-0.6l0,0l-4,1c-0.5,0.1-0.7,0.6-0.6,1l0.2,4c0,0.1,0,0.3,0,0.4
			c-0.9,0.4-1.7,1-2.4,1.6c-0.3,0.1-0.6,0.1-0.9-0.1L68.5,87c-0.4-0.2-0.9-0.1-1.2,0.3l0,0l-2.1,3.5c-0.2,0.4-0.1,0.9,0.3,1.2l3,2.7
			c0.1,0.1,0.2,0.2,0.3,0.3c-0.3,0.9-0.5,1.9-0.6,2.8c-0.1,0.3-0.4,0.5-0.7,0.6l-3.7,1.6c-0.5,0.1-0.7,0.6-0.6,1l0,0l1,4
			C64.3,105.4,64.7,105.7,65.2,105.6z M80.4,93.4c3.1-0.8,6.3,1.2,7.1,4.3c0.8,3.1-1.2,6.3-4.3,7.1c-3.1,0.8-6.3-1.1-7.1-4.3
			C75.4,97.4,77.3,94.2,80.4,93.4z"/>
	</g>
	<g>
		<rect x="220.7" y="159" class="st4" width="23.2" height="42.4"/>
		<rect x="250.1" y="131.9" class="st3" width="23.2" height="69.5"/>
		<rect x="161.9" y="171.5" class="st3" width="23.2" height="29.6"/>
		<rect x="191.3" y="147.7" class="st0" width="23.2" height="53.7"/>
	</g>
	<polygon class="st4" points="68.8,160.9 81.8,138.3 94.8,160.9 	"/>
	<polygon class="st2" points="253.6,103 240.5,125.5 227.5,103 	"/>
	<path class="st4" d="M173.5,258.5c-3.6,0-7.2-0.2-10.7-0.6l0.7-6.6c4.1,0.5,8.2,0.6,12.3,0.5l0.2,6.7
		C175.2,258.5,174.4,258.5,173.5,258.5z M184.8,257.9l-0.8-6.6c4.1-0.5,8.1-1.2,12.1-2.3l1.7,6.5
		C193.6,256.5,189.2,257.3,184.8,257.9z M154.1,256.5c-4.3-0.9-8.6-2.1-12.7-3.6l2.3-6.3c3.8,1.4,7.8,2.5,11.8,3.3L154.1,256.5z
		 M206.2,252.7l-2.3-6.3c3.8-1.4,7.6-3.1,11.2-5l3.1,5.9C214.4,249.4,210.3,251.2,206.2,252.7z M133.2,249.6c-4-1.9-7.9-4-11.6-6.4
		l3.6-5.6c3.4,2.2,7.1,4.2,10.7,6L133.2,249.6z M225.9,242.8l-3.7-5.6c3.4-2.3,6.7-4.8,9.8-7.5l4.4,5
		C233.1,237.7,229.6,240.4,225.9,242.8z M114.5,238c-3.5-2.7-6.7-5.7-9.8-8.9l4.8-4.6c2.8,3,5.9,5.7,9.1,8.3L114.5,238z
		 M242.7,228.7l-4.9-4.6c2.8-3,5.4-6.2,7.8-9.5l5.4,3.9C248.6,222.1,245.7,225.5,242.7,228.7z M98.9,222.5
		c-2.7-3.4-5.2-7.1-7.5-10.9l5.8-3.4c2.1,3.5,4.4,6.9,7,10.1L98.9,222.5z M87.3,203.8c-1.9-4-3.5-8.1-4.8-12.3l6.4-2
		c1.2,3.9,2.7,7.8,4.4,11.5L87.3,203.8z M80.3,182.9c-0.9-4.3-1.5-8.7-1.8-13.1l6.7-0.4c0.3,4.1,0.8,8.2,1.7,12.2L80.3,182.9z"/>
	<path class="st2" d="M237,99.8c-0.4-4.1-1-8.2-2-12.1l6.5-1.5c1,4.3,1.7,8.7,2.1,13.1L237,99.8z M232.9,79.8
		c-1.3-3.9-2.9-7.7-4.7-11.4l6-3c2,3.9,3.7,8.1,5.1,12.2L232.9,79.8z M66.1,76.4L59.9,74c1.6-4.1,3.4-8.1,5.6-12l5.9,3.2
		C69.3,68.8,67.6,72.6,66.1,76.4z M224.2,61.3c-2.2-3.5-4.6-6.8-7.2-10l5.1-4.3c2.8,3.4,5.4,7,7.7,10.7L224.2,61.3z M75.6,58.2
		l-5.5-3.8c2.5-3.6,5.2-7.1,8.2-10.4l5,4.5C80.4,51.6,77.9,54.9,75.6,58.2z M211.5,45.2c-2.9-2.9-6-5.6-9.3-8.1l4-5.3
		c3.5,2.6,6.9,5.6,10,8.7L211.5,45.2z M89,42.7l-4.5-4.9c3.2-3,6.7-5.8,10.3-8.3l3.8,5.5C95.2,37.4,92,40,89,42.7z M195.4,32.5
		c-3.5-2.2-7.1-4.1-10.9-5.7l2.7-6.1c4,1.8,8,3.8,11.7,6.2L195.4,32.5z M105.5,30.7l-3.3-5.8c3.8-2.2,7.8-4.1,11.9-5.7l2.4,6.2
		C112.8,26.9,109.1,28.7,105.5,30.7z M176.9,23.9c-3.9-1.3-7.9-2.3-11.9-3.1l1.2-6.6c4.3,0.8,8.6,1.9,12.8,3.3L176.9,23.9z
		 M124.4,22.8l-1.8-6.4c4.2-1.2,8.6-2.1,12.9-2.8l0.9,6.6C132.3,20.8,128.3,21.7,124.4,22.8z M156.8,19.7c-4.1-0.4-8.2-0.4-12.3-0.2
		l-0.3-6.7c4.4-0.2,8.8-0.1,13.2,0.3L156.8,19.7z"/>
</g>
<g>
	<g>
		<path class="st5" d="M48.2,302.4c-0.5,3-1.6,6-3,8.4c0.5,0.4,1.3,0.9,2.2,1.4c2.4,1.3,5.5,1.6,9.3,1.6c4.1,0,9.7-0.3,13.5-0.8
			c-0.4,0.8-0.9,2.4-0.9,3.3c-2.6,0.1-8.8,0.4-12.7,0.4c-4.3,0-7.2-0.4-9.7-1.7c-1.3-0.8-2.5-1.8-3.3-1.8s-2,2.1-2.9,4.1l-2.1-2.9
			c0.9-1.3,2-2.4,3-3l0,0c1.4-1.7,2.5-4.3,3.3-6.7h-4.7c0.9-2,2-4.7,3-7.4h-3.9v-2.9h7.9c-0.9,2.4-2,5.1-2.9,7.5H46l0.5-0.1
			L48.2,302.4z M43.3,292.8c-0.5-1.4-1.7-3.8-2.6-5.6l2.6-0.9c0.9,1.7,2.1,3.9,2.6,5.4L43.3,292.8z M50.7,300.9
			c-0.7,0.3-1.2,0.5-1.7,0.8c-0.4-0.7-1.2-1.7-1.8-2.2c3-0.9,6.2-2.8,8.4-4.7h-7.4v-2.4h9.1v-2.1c-2.5,0.1-5.1,0.3-7.5,0.4
			c-0.1-0.7-0.4-1.6-0.7-2.2c5.9-0.3,12.9-0.8,16.8-1.6l2,2.1c-2.1,0.5-4.9,0.8-7.6,1.1v2.4h9.2v2.4h-7.6c2.1,2,5.3,3.7,8.3,4.5
			c-0.7,0.5-1.4,1.6-1.8,2.4c-2.8-1-5.8-3-7.9-5.4v3.8h-3v-3.8c-1.7,1.7-3.8,3.3-6,4.5h12.5c-0.3,0.9-0.4,2-0.7,2.9h5.5
			c0,0-0.1,0.8-0.1,1.1c-0.4,3.8-0.7,5.5-1.4,6.2c-0.7,0.7-1.3,0.8-2.2,0.8c-0.8,0-2.4,0-4.1,0c0-0.8-0.4-1.7-0.8-2.4
			c1.4,0.1,3,0.1,3.5,0.1c0.5,0,0.8,0,1.1-0.3c0.4-0.4,0.7-1.3,0.9-3.4h-5.6c0.3-0.8,0.5-1.7,0.8-2.8h-3.3c-0.7,4.3-2.4,7.4-7.6,9.1
			c-0.3-0.7-1.1-1.8-1.6-2.4c4.3-1.3,5.8-3.5,6.3-6.8H51L50.7,300.9L50.7,300.9z"/>
		<path class="st5" d="M84.6,307c-0.7-0.9-2-2.5-3-3.8v13.8h-3.2v-13c-1.3,1.3-2.9,2.5-4.2,3.4c-0.3-0.8-0.9-2.5-1.3-3
			c3.5-2,7.1-5.6,9.2-9.6h-8.3V292H80c-0.7-1.2-1.8-2.9-2.8-4.1l2.4-1.4c1.2,1.2,2.5,3,3,4.2l-2,1.3h3.2l0.5-0.1L86,293
			c-1.1,2.5-2.4,4.9-4.1,7.1c1.3,1.2,3.9,3.7,4.6,4.3L84.6,307z M101,314.2c0.7,0,0.8-0.5,0.8-4.1c0.5,0.5,1.8,0.9,2.6,1.2
			c-0.3,4.5-1.1,5.5-3.2,5.5h-2.5c-2.5,0-3.2-0.9-3.2-3.7v-7.4h-2.5c-0.5,5.5-2,9.1-8,11.2c-0.3-0.7-1.1-1.8-1.7-2.2
			c5.4-1.7,6.4-4.5,6.8-8.9h-2.6v-18.3h14.6v18.3h-3.8v7.2c0,0.8,0.1,0.9,0.7,0.9h2L101,314.2L101,314.2z M90.6,292.9h8.7v-2.8h-8.7
			V292.9z M90.6,298.2h8.7v-2.8h-8.7V298.2z M90.6,303.4h8.7v-2.9h-8.7V303.4z"/>
		<path class="st5" d="M125.6,287.3c-0.3,0.4-0.5,0.7-0.8,1.1c4.2,4.7,9.1,7.2,14.1,9.3c-0.8,0.7-1.6,1.7-2,2.8
			c-4.9-2.2-9.3-5-13.8-9.9c-3.7,4.1-8.5,7.5-13.5,9.9c-0.5-0.8-1.3-2-2.1-2.6c6-2.4,12.1-6.7,15.4-11.7L125.6,287.3z M125,313.3
			h12.3v2.9H109v-2.9h3.9v-12h3v12h5.6v-17.7h3.3v7.4h9.3v2.8h-9.3L125,313.3L125,313.3z"/>
		<path class="st5" d="M154.6,311.7c-2.4,1.8-6.6,3.5-10,4.3c-0.4-0.7-1.2-1.7-1.8-2.2c3.4-0.5,7.5-1.7,9.6-3.2L154.6,311.7z
			 M172.1,306.6v2.6h-13.1v7.7h-3v-7.7h-13v-2.6h13v-2h-9.9v-2.4h9.9v-2h-11.6v-2.5h6.7c-0.4-0.8-0.9-2-1.4-2.9l2-0.5H143v-2.5h5
			c-0.5-1.3-1.4-3.2-2.5-4.5l2.8-0.9c1.1,1.4,2.2,3.5,2.6,4.7l-1.8,0.7h3.8v-5.8h2.9v5.8h3.3v-5.8h2.9v5.8h3.7l-1.3-0.4
			c0.8-1.3,1.8-3.4,2.4-5l3.2,0.8c-0.9,1.7-2,3.3-2.8,4.6h4.7v2.5H163l2.6,0.7c-0.8,1.1-1.4,2-2.2,2.6h7.1v2.5h-11.8v2h10.2v2.4
			h-10.2v2L172.1,306.6L172.1,306.6z M152.6,294.5c0.7,0.9,1.3,2.2,1.6,2.9l-1.4,0.4h9.2l-1.2-0.4c0.7-0.8,1.4-2.1,1.8-3
			L152.6,294.5L152.6,294.5z M162.7,310.5c2.9,1.1,7.1,2.6,9.3,3.8l-2.1,1.8c-2.1-1.1-6.2-2.8-9.2-3.9L162.7,310.5z"/>
		<path class="st5" d="M186.4,306.6c-0.1-0.5-0.3-1.1-0.4-1.7c-7,1.1-8,1.3-8.7,1.7c-0.1-0.7-0.7-2.1-0.9-2.8
			c0.8-0.1,1.4-0.9,2.5-2.2c0.5-0.5,1.4-1.7,2.5-3.3c-3,0.4-3.8,0.5-4.2,0.8c-0.1-0.5-0.5-2-0.9-2.6c0.7-0.1,1.2-0.8,1.8-1.8
			c0.7-0.9,2.9-4.7,4.2-8.3l2.8,1.2c-1.3,2.9-3.2,6-4.9,8.4l2.9-0.3c0.8-1.3,1.7-2.9,2.4-4.3l2.6,1.6c-2,3.7-4.6,7.4-7.1,10.4
			l4.5-0.5c-0.3-1.1-0.7-2.1-1.1-3l2.4-0.7c0.9,2.2,1.8,5.1,2.1,6.8L186.4,306.6z M180.3,308.3c-0.4,3-0.9,6.3-1.6,8.4
			c-0.5-0.4-1.8-0.8-2.5-0.9c0.8-2,1.2-5.1,1.4-7.9L180.3,308.3z M183.7,307.8c0.4,2.2,0.8,5.1,0.9,7l-2.5,0.5c-0.1-2-0.4-4.7-0.8-7
			L183.7,307.8z M186.9,306.8c0.7,1.7,1.3,3.9,1.6,5.4l-2.2,0.8c-0.3-1.4-0.9-3.8-1.6-5.5L186.9,306.8z M207,313.4v2.9h-19v-2.9h8
			v-5.6h-6.3V305h16v2.8h-6.4v5.6H207z M192.5,304.1c-0.7-1.7-2.2-4.3-3.9-6.6c1.3-2,2.8-4.5,3.5-6l2.6,0.7
			c-0.9,1.7-2.2,3.8-3.3,5.4c1.4,1.8,2.9,4.1,3.5,5.5L192.5,304.1z M206.6,290.7h-17.7v-2.8h17.7L206.6,290.7L206.6,290.7z
			 M200.3,292.1c-0.9,1.7-2.2,3.7-3.3,5.3c1.4,1.8,2.9,4.1,3.7,5.5l-2.5,1.1c-0.8-1.7-2.4-4.2-4.2-6.4c1.3-2,2.8-4.5,3.5-6
			L200.3,292.1z M204.1,304.1c-0.8-1.7-2.5-4.3-4.5-6.6c1.4-2,2.9-4.5,3.7-6l2.8,0.7c-1.1,1.7-2.2,3.7-3.4,5.4
			c1.6,1.8,3.2,4.1,3.9,5.5L204.1,304.1z"/>
		<path class="st5" d="M234.8,286.3c-0.1,2.1-0.4,3.8-0.9,5.3c2.2,1.1,5.1,2.6,6.7,3.7l-1.4,1.7h1.1v6.2h-3.2v-3.8h-21.9v3.8h-3V297
			h0.3c-0.3-0.7-0.9-1.6-1.4-2c5.8-1.3,6.7-3.7,7-8.7h2.8c-0.1,2.1-0.4,3.9-0.9,5.4c1.7,0.9,3.8,2.2,5,3.2l-2,2
			c-0.9-0.8-2.6-2-4.2-2.9c-1.2,1.4-2.8,2.5-5.4,3.2h13.5c-0.3-0.7-0.9-1.7-1.6-2.4c5.8-1.3,6.6-3.5,7-8.4L234.8,286.3L234.8,286.3z
			 M214.4,291.7c-0.5-0.8-1.7-2.2-2.5-3.3l1.8-1.3c0.9,1.1,2.1,2.4,2.6,3.2L214.4,291.7z M225.1,309.1h13v8h-3v-0.8h-17.2v0.9H215
			v-8h7.5c0.3-0.5,0.5-1,0.7-1.6h-5.9v-6.4h18v6.4H226L225.1,309.1z M235,311.3h-17.2v2.6H235V311.3z M220.1,305.4h12V303h-12V305.4
			z M225.9,288.7c-1.1,1.2-2.1,2.5-2.9,3.3l-1.8-0.8c0.8-0.9,1.7-2.5,2.2-3.4L225.9,288.7z M228.5,291.6c-0.5-0.8-1.7-2.2-2.6-3.3
			l1.8-1.3c0.9,1.1,2.1,2.4,2.6,3.2L228.5,291.6z M238.3,297c-1.3-0.9-3.5-2.2-5.5-3.3c-1.2,1.4-3,2.5-5.9,3.3H238.3z M240.6,288.7
			c-1.1,1.3-2.2,2.6-3.2,3.5l-1.8-0.9c0.8-0.9,1.8-2.5,2.5-3.5L240.6,288.7z"/>
		<path class="st5" d="M275.6,313.5v2.5h-29.9v-2.5h13.1v-2.4H248v-2.5h10.8v-1.8h-9.6v-10.4h9.7v-1.7h-13v-2.5h13v-2
			c-3.3,0.1-6.8,0.3-9.9,0.4c0-0.8-0.4-1.8-0.7-2.5c7.7-0.1,16.9-0.8,22.3-1.7l1.6,2.5c-2.9,0.5-6.4,0.9-10.2,1.2v2.2h13.4v2.5H262
			v1.7h10.2V307H262v1.8h11.4v2.5H262v2.4h13.5L275.6,313.5L275.6,313.5z M252.2,300.5h6.6v-2.1h-6.6V300.5z M258.7,304.6v-2.1h-6.6
			v2.1H258.7z M261.9,298.6v2.1h7.1v-2.1H261.9z M269,302.5h-7.1v2.1h7.1V302.5z"/>
		<path class="st5" d="M279.1,315.9c1.3-1.4,2-3.8,2.2-6l2.2,0.5c-0.4,2.5-0.9,5.1-2.5,6.7L279.1,315.9z M279.8,306
			c1.7,0,3.8-0.1,6-0.3v-2.1h-5.4v-2.4h5.4v-1.8h-5.1v-12.1h13.5v12.1h-5.5v1.8h5.6v2.4h-5.6v2c2-0.1,4.1-0.3,6.2-0.4v2.5
			c-5.4,0.4-10.9,0.7-14.8,0.9L279.8,306z M283,297.2h3.2v-7.7H283V297.2z M284.8,290.7c0.5,1.6,1.1,3.7,1.1,5l-1.4,0.4
			c-0.1-1.3-0.5-3.4-1.1-5.1L284.8,290.7z M286.2,309.7c0.5,1.8,0.8,4.2,0.9,5.8l-2.1,0.4c0-1.6-0.3-3.9-0.7-5.8L286.2,309.7z
			 M289.5,309.5c0.8,1.7,1.4,3.9,1.7,5.4l-2,0.5c-0.3-1.4-0.9-3.8-1.6-5.5L289.5,309.5z M291.7,289.5h-3.5v7.7h3.5V289.5z
			 M288.4,295.7c0.5-1.3,1.2-3.7,1.4-5.1l1.7,0.7c-0.7,1.7-1.3,3.7-2,5L288.4,295.7z M292.5,308.7c1.2,1.6,2.4,3.7,2.8,5.1l-2,0.9
			c-0.4-1.4-1.6-3.5-2.6-5.3L292.5,308.7z M303.4,296.2v5.8h5.6v15h-3v-1.4h-7.5v1.6h-2.9V302h4.6v-15.6h3v7.1h7v2.9L303.4,296.2
			L303.4,296.2z M306,304.9h-7.5v7.9h7.5V304.9z"/>
	</g>
</g>
</svg>
