<?xml version="1.0" encoding="utf-8"?>
<!-- Generator: Adobe Illustrator 24.3.0, SVG Export Plug-In . SVG Version: 6.00 Build 0)  -->
<svg version="1.1" id="圖層_1" xmlns="http://www.w3.org/2000/svg" xmlns:xlink="http://www.w3.org/1999/xlink" x="0px" y="0px"
	 viewBox="0 0 350 350" style="enable-background:new 0 0 350 350;" xml:space="preserve">
<style type="text/css">
	.st0{fill:#1C2D5B;}
	.st1{fill:#D0D2D3;}
	.st2{fill:#50A7B7;}
	.st3{fill:#0C3755;}
	.st4{fill:#AB1F24;}
	.st5{fill:#FFFFFF;}
</style>
<g>
	<g>
		<path class="st0" d="M89.5,295.9c-0.5,1.1-1.1,2.1-1.8,3.3h15.3v16c0,1.6-0.4,2.5-1.5,2.9c-1.1,0.5-2.9,0.5-5.6,0.5
			c-0.1-0.8-0.5-2.1-0.9-2.9c1.9,0.1,3.8,0.1,4.4,0.1c0.5,0,0.8-0.1,0.8-0.6v-2.8H87.1c-0.5,2.4-1.5,4.8-3.4,6.4
			c-0.4-0.6-1.6-1.9-2.1-2.4c2.7-2.5,2.9-5.9,2.9-9v-3.8c-1.4,1.6-2.9,3-4.7,4.3c-0.5-0.6-1.4-1.8-2-2.3c3.5-2.4,6.3-5.9,8.3-9.9
			h-7.6v-2.8h8.8c0.5-1.4,1-2.7,1.4-4l3,0.8c-0.4,1.1-0.8,2.3-1.1,3.3h16v2.8L89.5,295.9L89.5,295.9z M100.1,309.8V307H87.6v0.5
			c0,0.8,0,1.5-0.1,2.3L100.1,309.8L100.1,309.8z M100.1,301.7H87.6v2.8h12.5C100.1,304.5,100.1,301.7,100.1,301.7z"/>
		<path class="st0" d="M117.6,297.6c-1.3,2.8-3,6.1-4.8,8.1c-0.5-0.5-1.4-1.4-2-1.9c1.6-1.9,3.3-4.4,4.2-7L117.6,297.6z
			 M122.5,315.4c-0.6-1.3-1.8-2.8-3-4.4c-1.8,2.9-3.9,5.2-6.6,6.9c-0.4-0.5-1.4-1.8-2-2.1c2.8-1.8,5.2-4.2,6.8-7.1
			c-1.3-1.4-2.5-2.8-3.7-3.9l2.1-1.6c0.9,0.9,1.8,1.9,2.8,2.8c0.5-1.3,1-2.5,1.3-4l2.8,0.5c-0.6,2.1-1.3,4-2.1,5.8
			c1.6,1.9,3.2,3.8,3.9,5.3L122.5,315.4z M126.3,296.3h-14.8v-2.7h6.7c-0.4-1.1-1.3-2.5-2-3.7l2.5-0.9c0.9,1.1,1.9,2.8,2.3,3.8
			l-1.9,0.8h7.3L126.3,296.3L126.3,296.3z M138.6,297.6c-0.8,5.2-2,9.4-3.9,12.8c1.6,2.5,3.7,4.5,6.2,5.8c-0.8,0.6-1.6,1.6-2.1,2.4
			c-2.3-1.4-4.2-3.4-5.8-5.7c-1.9,2.4-4.2,4.3-7.2,5.8c-0.4-0.6-1.4-1.8-2-2.3c3.3-1.5,5.8-3.5,7.6-6.2c-1-2-2-4.3-2.7-6.8
			c-0.5,0.9-1,1.8-1.6,2.5c-0.4-0.6-1.4-1.8-1.9-2.4c0.3-0.4,0.5-0.6,0.6-1l-2,1.1c-0.6-1.6-2.1-4.2-3.7-5.9l2.1-1.1
			c1.4,1.6,3,3.9,3.7,5.6c2-3.4,3.3-8.2,4-13.1l2.8,0.4c-0.4,1.8-0.8,3.7-1.1,5.3h8.3v2.8L138.6,297.6L138.6,297.6z M131.1,297.6
			c-0.3,0.8-0.5,1.4-0.8,2.1c0.6,2.8,1.5,5.4,2.7,7.8c1.3-2.8,2.1-6.1,2.7-10H131.1L131.1,297.6z"/>
		<path class="st0" d="M154.4,305.8c-1,0.4-2.1,0.6-3.2,0.9v8.5c0,1.5-0.4,2.3-1.3,2.8c-0.9,0.5-2.4,0.5-4.5,0.5
			c-0.1-0.8-0.5-2-0.9-2.7c1.4,0,2.8,0,3.2,0c0.5,0,0.6-0.1,0.6-0.6v-7.6l-3.8,1l-0.8-2.9c1.3-0.3,2.8-0.6,4.6-1.1v-6.3h-4.2v-2.8
			h4.2v-6.3h2.9v6.3h3.8v2.8h-3.8v5.6l2.8-0.8L154.4,305.8z M171.4,303.8c-1.3,3.9-3.3,7-5.9,9.2c2.3,1.3,5.1,2.3,8.1,2.9
			c-0.6,0.6-1.4,1.9-1.9,2.8c-3.3-0.8-6.2-2-8.7-3.8c-2.7,1.8-5.8,2.9-9.1,3.8c-0.3-0.9-0.9-2.1-1.5-2.8c2.9-0.6,5.7-1.5,8.2-2.9
			c-2-1.9-3.7-4.2-4.9-6.8l0.8-0.3h-1.6v-2.8h14.2l0.5-0.1L171.4,303.8z M160.6,293.8c0,3-0.9,6.6-5.1,8.7c-0.4-0.6-1.4-1.8-1.9-2.1
			c3.7-1.9,4.2-4.3,4.2-6.6v-3.7h10.6v7.2c0,0.9,0.1,1.3,0.6,1.3h2.1c0.5,0,1.3-0.1,1.6-0.3c0,0.8,0.1,1.9,0.3,2.5
			c-0.5,0.1-1.1,0.3-1.9,0.3h-2.4c-2.7,0-3.2-1-3.2-3.8v-4.4h-4.9L160.6,293.8L160.6,293.8z M158.5,305.8c1.1,2.1,2.7,3.9,4.5,5.4
			c1.8-1.5,3.3-3.3,4.4-5.4H158.5z"/>
		<path class="st0" d="M183,303.9c-1.3-1-3.9-2.5-5.9-3.5l1.6-2.1c1.9,0.9,4.5,2.3,5.9,3.2L183,303.9z M186.3,308.1
			c-1.8,3.4-3.8,7.2-5.7,10.2l-2.5-2c1.8-2.4,4.2-6.6,6.1-10.1L186.3,308.1z M184.8,295.2c-1.3-1-3.9-2.5-5.9-3.5l1.6-2.1
			c2,0.9,4.7,2.3,6.1,3.3L184.8,295.2z M206.7,314.8v2.9h-21v-2.9h9.1v-7.5H188v-2.9h6.8v-6.6h-8.1V295h9.1
			c-0.4-1.4-1.5-3.5-2.5-5.2l2.8-1c1,1.6,2.1,3.8,2.7,5.2l-2.8,1h10v2.8h-7.8v6.6h6.8v2.9h-6.8v7.5H206.7z"/>
		<path class="st0" d="M230.2,293.9c0,0.3,0,0.5-0.1,0.8c1.8,1.8,5.2,2.9,9.5,3.2c-0.6,0.6-1.3,1.6-1.6,2.4
			c-3.7-0.5-6.6-1.6-8.6-3.5c-1.1,1.5-3.7,2.9-9.2,3.7c-0.3-0.6-1-1.6-1.5-2.3h-8.2v-2.4h9.4v2.1c6.9-0.9,7.7-2.7,7.7-4v-0.4h-2.7
			c-0.8,1.1-1.5,2.1-2.4,3c-0.5-0.4-1.6-1.1-2.3-1.5c1.6-1.4,3-3.7,3.7-5.9l2.7,0.6c-0.3,0.5-0.4,1-0.6,1.6h10.1l0.4-0.1l2,0.6
			c-0.8,1.8-1.9,3.5-2.8,4.8l-2.4-0.9c0.4-0.6,0.9-1.4,1.4-2.3h-4.4L230.2,293.9L230.2,293.9z M229.9,313.4c3.3,1.1,6.9,2.4,9.1,3.5
			l-2.6,1.6c-2-1-5.3-2.5-8.7-3.7l1.9-1.5h-9.6l2.7,1.3c-2.7,1.6-6.7,3.2-9.9,4c-0.5-0.6-1.6-1.8-2.3-2.3c3.3-0.6,7.1-1.8,9.2-3
			h-5.2v-13h21v13L229.9,313.4L229.9,313.4z M218.9,293h-7.8v-2.3h7.8V293z M217.5,304.1h15.2v-1.9h-15.2V304.1z M217.5,307.8h15.2
			V306h-15.2V307.8z M217.5,311.5h15.2v-1.9h-15.2V311.5z"/>
		<path class="st0" d="M248.4,303.4c-1.1-0.9-3.5-2.4-5.3-3.4l1.8-2.1c1.6,0.9,4,2.3,5.4,3.2L248.4,303.4z M250.7,307.9
			c-1.3,3.4-2.9,7.2-4.4,10.2l-2.7-1.6c1.4-2.5,3.3-6.7,4.7-10.4L250.7,307.9z M249.9,295c-1.1-0.9-3.5-2.4-5.3-3.5l1.8-2.1
			c1.6,0.9,4,2.4,5.3,3.3L249.9,295z M255.6,299.5c0,5.6-0.6,13.8-4.3,19.1c-0.5-0.5-1.8-1.3-2.5-1.5c3.7-5.1,3.9-12.3,3.9-17.4
			v-8.8h19.7v2.7h-16.8L255.6,299.5L255.6,299.5z M260.6,310.2c-1,2.3-2.5,4.9-3.9,6.6c-0.5-0.4-1.8-1.1-2.4-1.4
			c1.4-1.5,2.8-3.8,3.7-5.8L260.6,310.2z M265.4,307.9v7.7c0,1.4-0.3,2.1-1.1,2.5c-0.9,0.5-2.4,0.5-4.4,0.5
			c-0.1-0.8-0.5-1.9-0.8-2.5c1.4,0,2.7,0,3,0s0.5-0.1,0.5-0.5v-7.7h-5.4v-11.2h4.5c0.4-1,0.6-2.1,0.9-3l3.4,0.6
			c-0.4,0.9-0.9,1.6-1.3,2.4h6.6v11.2H265.4L265.4,307.9z M259.8,301.2h8.7V299h-8.7V301.2z M259.8,305.7h8.7v-2.4h-8.7V305.7z
			 M269.6,309.2c1.1,1.9,2.7,4.6,3.4,6.1l-2.8,1.1c-0.6-1.6-2.1-4.3-3.3-6.3L269.6,309.2z"/>
	</g>
</g>
<g>
	<polygon class="st1" points="222.6,198.2 202.8,217.8 202.8,118.6 222.6,118.6 	"/>
	<polygon class="st2" points="247.4,175.8 227.6,195.4 227.6,139.6 247.4,139.6 	"/>
	<polygon class="st3" points="272.3,147 252.5,166.7 252.5,70.6 272.3,70.6 	"/>
	<polygon class="st4" points="192.4,240.7 138.9,190.1 146.4,182.1 191.6,224.9 324.1,75.3 332.4,82.6 	"/>
	<polygon class="st4" points="307.9,72.2 345.7,58.2 338.8,97.9 	"/>
	<g>
		<path class="st2" d="M105.7,90.4V65.9c-18.7,0.5-35.7,8.1-48.4,20l17.4,17.4C82.9,95.7,93.7,90.9,105.7,90.4z"/>
		<path class="st3" d="M71.6,106.3L54.2,89c-12,12.7-19.5,29.7-20,48.4h24.5C59.3,125.4,64,114.6,71.6,106.3z"/>
		<path class="st2" d="M158.4,85.9c-12.7-12-29.7-19.5-48.4-20v24.5c11.9,0.5,22.8,5.3,31,12.9L158.4,85.9z"/>
		<path class="st2" d="M144.1,106.3c7.6,8.2,12.3,19.1,12.8,31h24.6c-0.5-18.7-8.1-35.7-20-48.4L144.1,106.3z"/>
		<path class="st3" d="M110,188.6v24.5c18.7-0.5,35.7-8.1,48.4-20L141,175.8C132.8,183.3,121.9,188.1,110,188.6z"/>
		<path class="st3" d="M58.7,141.7H34.2c0.5,18.7,8,35.7,20,48.4l17.4-17.4C64,164.4,59.3,153.6,58.7,141.7z"/>
		<path class="st3" d="M57.3,193.1c12.7,12,29.7,19.5,48.4,20v-24.5c-11.9-0.5-22.8-5.3-31-12.9L57.3,193.1z"/>
		<path class="st5" d="M157,139.6c0-27.1-22-49.1-49.1-49.1c-27.1,0-49.1,22-49.1,49.1c0,27.1,22,49.1,49.1,49.1
			C135,188.7,157,166.7,157,139.6z M107.8,181.7c-23.3,0-42.1-18.9-42.1-42.1c0-23.2,18.8-42.1,42.1-42.1
			c23.2,0,42.1,18.9,42.1,42.1C149.9,162.8,131.1,181.7,107.8,181.7z"/>
		<path class="st2" d="M144.1,172.7l17.4,17.4c12-12.7,19.5-29.7,20-48.4h-24.6C156.4,153.6,151.6,164.4,144.1,172.7z"/>
	</g>
	<circle class="st4" cx="107.8" cy="139.6" r="27.7"/>
	<rect x="18.2" y="136.2" class="st1" width="81" height="5.8"/>
	<polygon class="st4" points="4.4,151.9 18.2,141.7 45.5,141.7 31.7,151.9 	"/>
	<polygon class="st4" points="4.4,126.1 18.2,136.4 45.5,136.4 31.7,126.1 	"/>
	<polygon class="st5" points="96.2,128.2 115.2,139.1 96.2,150.1 	"/>
</g>
</svg>
