<?xml version="1.0" encoding="utf-8"?>
<!-- Generator: Adobe Illustrator 24.3.0, SVG Export Plug-In . SVG Version: 6.00 Build 0)  -->
<svg version="1.1" id="圖層_1" xmlns="http://www.w3.org/2000/svg" xmlns:xlink="http://www.w3.org/1999/xlink" x="0px" y="0px"
	 viewBox="0 0 350 350" style="enable-background:new 0 0 350 350;" xml:space="preserve">
<style type="text/css">
	.st0{fill:#50A7B7;}
	.st1{fill:#0C3755;}
	.st2{fill:#AB1F24;}
	.st3{fill:#D0D2D3;}
	.st4{fill:#FFFFFF;}
	.st5{fill:#1C2D5B;}
</style>
<g>
	<polygon class="st0" points="304.4,135.1 196.5,135.1 196.5,0 274,0 304.4,27.7 	"/>
	<g>
		<g>
			<path class="st1" d="M211.1,204.5l0.5-10.7c0-0.4,0-0.7,0.1-1.1c2.4-0.9,4.7-2.1,6.9-3.5c0.8-0.2,1.7-0.1,2.4,0.4l9.5,4.9
				c1,0.7,2.4,0.6,3.2-0.4l0,0l6.6-8.6c0.8-1,0.6-2.4-0.4-3.2l-7.2-7.9c-0.3-0.2-0.5-0.5-0.7-0.8c1-2.3,1.8-4.8,2.4-7.3
				c0.4-0.7,1.1-1.3,2-1.4l10.2-3.3c1.2-0.2,2.1-1.3,1.9-2.5l0,0l-1.4-10.7c-0.2-1.2-1.3-2.1-2.5-1.9l-10.7-0.5
				c-0.4,0-0.7,0-1.1-0.1c-0.9-2.4-2.1-4.7-3.5-6.9c-0.2-0.8-0.1-1.7,0.4-2.4l4.9-9.5c0.8-1,0.6-2.4-0.4-3.2l0,0l-8.6-6.5
				c-1-0.8-2.4-0.6-3.2,0.4l-7.9,7.2c-0.2,0.3-0.5,0.5-0.8,0.7c-2.3-1-4.8-1.8-7.3-2.4c-0.7-0.4-1.3-1.1-1.4-2l-3.3-10.2
				c-0.2-1.2-1.3-2.1-2.5-1.9l0,0l-10.7,1.4c-1.2,0.2-2.1,1.3-1.9,2.5l-0.5,10.7c0,0.4,0,0.7-0.1,1.1c-2.4,0.9-4.7,2.1-6.9,3.5
				c-0.8,0.2-1.7,0.1-2.4-0.4l-9.5-4.9c-1-0.8-2.4-0.6-3.2,0.4l0,0l-6.5,8.6c-0.8,1-0.6,2.4,0.4,3.2l7.2,7.9
				c0.3,0.2,0.5,0.5,0.7,0.8c-1,2.3-1.8,4.8-2.4,7.3c-0.4,0.7-1.1,1.3-2,1.4l-10.2,3.3c-1.2,0.2-2.1,1.3-1.9,2.5l0,0l1.4,10.7
				c0.2,1.2,1.3,2.1,2.5,1.9l10.7,0.5c0.4,0,0.7,0,1.1,0.1c0.9,2.4,2.1,4.7,3.5,6.9c0.2,0.8,0.1,1.7-0.4,2.4l-4.9,9.5
				c-0.8,1-0.6,2.4,0.4,3.2l0,0l8.6,6.5c1,0.8,2.4,0.6,3.2-0.4l7.9-7.2c0.2-0.3,0.5-0.5,0.8-0.7c2.3,1,4.8,1.8,7.3,2.4
				c0.7,0.4,1.3,1.1,1.4,2l3.3,10.2c0.2,1.2,1.3,2.1,2.5,1.9l0,0l10.7-1.4C210.4,206.9,211.3,205.7,211.1,204.5z M183.4,160.9
				c-1.1-8.5,4.8-16.3,13.3-17.4c8.5-1.1,16.3,4.8,17.4,13.3c1.1,8.5-4.8,16.3-13.3,17.4C192.3,175.4,184.5,169.4,183.4,160.9z"/>
		</g>
	</g>
	<g>
		<path class="st2" d="M113.6,105.2l7.9-0.5c0.3-0.1,0.5-0.1,0.8,0c0.9,1.7,1.9,3.3,3.1,4.7c0.2,0.6,0.2,1.2-0.1,1.8l-2.8,7.4
			c-0.5,0.8-0.2,1.8,0.6,2.3l0,0l6.8,4.1c0.8,0.5,1.8,0.2,2.3-0.6l5.2-5.9c0.1-0.2,0.3-0.4,0.6-0.6c1.8,0.6,3.7,1,5.6,1.2
			c0.6,0.2,1,0.7,1.2,1.4l3.2,7.2c0.2,0.9,1.1,1.4,2,1.2l0,0l7.7-1.9c0.9-0.2,1.4-1.1,1.2-2l-0.5-7.9c-0.1-0.3-0.1-0.5,0-0.8
			c1.7-0.9,3.3-1.9,4.7-3.1c0.6-0.2,1.2-0.2,1.8,0.1l7.4,2.8c0.8,0.5,1.8,0.2,2.3-0.6l0,0l4.1-6.8c0.5-0.8,0.2-1.8-0.6-2.3l-5.9-5.2
			c-0.2-0.1-0.4-0.3-0.6-0.6c0.6-1.8,1-3.6,1.2-5.5c0.2-0.6,0.7-1,1.4-1.2l7.2-3.2c0.9-0.2,1.4-1.1,1.2-2l0,0l-1.9-7.7
			c-0.2-0.9-1.1-1.4-2-1.2l-7.9,0.5c-0.3,0.1-0.5,0.1-0.8,0c-0.9-1.7-1.9-3.3-3.1-4.8c-0.2-0.6-0.2-1.2,0.1-1.8l2.8-7.4
			c0.5-0.8,0.2-1.8-0.6-2.3l0,0l-6.8-4.1c-0.8-0.5-1.8-0.2-2.3,0.6l-5.2,5.9c-0.1,0.2-0.3,0.4-0.6,0.6c-1.8-0.6-3.6-1-5.6-1.2
			c-0.6-0.2-1-0.7-1.2-1.3l-3.2-7.2c-0.2-0.9-1.1-1.4-2-1.2l0,0l-7.7,1.9c-0.9,0.2-1.4,1.1-1.2,2l0.5,7.9c0.1,0.3,0.1,0.5,0,0.8
			c-1.7,0.9-3.3,1.9-4.8,3.1c-0.6,0.2-1.2,0.2-1.8-0.1l-7.4-2.8c-0.8-0.5-1.8-0.2-2.3,0.6l0,0l-4.1,6.8c-0.5,0.8-0.2,1.8,0.6,2.3
			l5.9,5.2c0.2,0.1,0.4,0.3,0.6,0.6c-0.6,1.8-1,3.6-1.2,5.6c-0.2,0.6-0.7,1-1.4,1.2l-7.2,3.2c-0.9,0.2-1.4,1.1-1.2,2l0,0l1.9,7.7
			C111.8,104.9,112.7,105.4,113.6,105.2z M143.3,81.5c6.1-1.5,12.3,2.2,13.8,8.4c1.5,6.1-2.2,12.3-8.4,13.8
			c-6.1,1.5-12.3-2.2-13.8-8.4C133.4,89.1,137.2,83,143.3,81.5z"/>
	</g>
	<g>
		<path class="st0" d="M96.9,160.6l5.6-0.3c0.2,0,0.4,0,0.6,0c0.6,1.2,1.4,2.3,2.2,3.4c0.2,0.4,0.1,0.9-0.1,1.3l-2,5.2
			c-0.3,0.6-0.2,1.3,0.4,1.6l0,0l4.8,2.9c0.6,0.3,1.3,0.2,1.6-0.4l3.7-4.2c0.1-0.2,0.2-0.3,0.4-0.4c1.3,0.4,2.6,0.7,3.9,0.8
			c0.4,0.2,0.7,0.5,0.8,1l2.3,5.1c0.2,0.6,0.8,1,1.4,0.9l0,0l5.5-1.3c0.6-0.1,1-0.8,0.9-1.4l-0.3-5.6c0-0.2,0-0.4,0-0.6
			c1.2-0.6,2.3-1.4,3.4-2.2c0.4-0.2,0.9-0.1,1.3,0.1l5.2,2c0.5,0.3,1.3,0.1,1.6-0.4l0,0l2.9-4.8c0.3-0.6,0.2-1.3-0.4-1.6l-4.2-3.7
			c-0.2-0.1-0.3-0.2-0.4-0.4c0.4-1.3,0.7-2.6,0.8-3.9c0.2-0.4,0.5-0.7,1-0.8l5.1-2.3c0.6-0.2,1-0.8,0.9-1.4l0,0l-1.3-5.5
			c-0.2-0.6-0.8-1-1.4-0.9l-5.6,0.3c-0.2,0-0.4,0-0.6,0c-0.6-1.2-1.4-2.3-2.2-3.4c-0.2-0.4-0.1-0.9,0.1-1.3l2-5.2
			c0.3-0.6,0.2-1.3-0.4-1.6l0,0l-4.8-2.9c-0.6-0.3-1.3-0.2-1.6,0.4l-3.7,4.2c-0.1,0.2-0.2,0.3-0.4,0.4c-1.3-0.4-2.6-0.7-3.9-0.8
			c-0.4-0.2-0.7-0.5-0.8-1l-2.3-5.1c-0.2-0.6-0.8-1-1.4-0.9l0,0l-5.5,1.3c-0.6,0.2-1,0.8-0.9,1.4l0.3,5.6c0,0.2,0,0.4,0,0.6
			c-1.2,0.6-2.3,1.4-3.4,2.2c-0.4,0.2-0.9,0.1-1.3-0.1l-5.2-2c-0.6-0.3-1.3-0.2-1.6,0.4l0,0l-2.9,4.8c-0.3,0.5-0.2,1.3,0.4,1.6
			l4.2,3.7c0.2,0.1,0.3,0.2,0.4,0.4c-0.4,1.3-0.7,2.6-0.8,3.9c-0.2,0.4-0.5,0.7-1,0.8l-5.1,2.3c-0.6,0.2-1,0.8-0.9,1.4l0,0l1.3,5.5
			C95.6,160.3,96.3,160.7,96.9,160.6z M117.9,143.8c4.3-1.1,8.7,1.6,9.8,5.9c1.1,4.3-1.6,8.7-5.9,9.8c-4.3,1.1-8.7-1.6-9.8-5.9
			C111,149.2,113.6,144.8,117.9,143.8z"/>
	</g>
	<g>
		<g>
			<path class="st3" d="M268.1,157.8c-9.1,36.2-37.7,64.8-73.9,73.9v11.3c42.3-9.5,75.6-42.9,85.2-85.2H268.1z"/>
			<path class="st3" d="M70.8,108.1c9.1-36.2,37.7-64.7,73.9-73.9V23c-42.3,9.5-75.6,42.9-85.2,85.2H70.8z"/>
			<path class="st3" d="M144.6,231.6c-36.2-9.1-64.8-37.7-73.9-73.9H59.5c9.5,42.3,42.9,75.6,85.2,85.2V231.6z"/>
		</g>
		<polygon class="st3" points="139.8,8.4 172.6,27.7 139.8,47 		"/>
		<polygon class="st4" points="289.2,112.3 274,138.2 258.8,112.3 		"/>
		<polygon class="st3" points="196.1,256.5 163.3,237.2 196.1,217.9 		"/>
		<polygon class="st3" points="45.6,158.9 64.9,126 84.2,158.9 		"/>
		<g>
			<path class="st4" d="M191.2,31.7c-1.9-0.4-3.9-0.8-5.9-1.1l0.9-6.1c2.1,0.3,4.2,0.7,6.2,1.1L191.2,31.7z"/>
			<path class="st4" d="M268.9,104.5c-1.2-4.1-2.6-8.1-4.2-12.1l5.7-2.4c1.8,4.1,3.3,8.4,4.5,12.8L268.9,104.5z M260.5,83.9
				c-2-3.7-4.3-7.4-6.7-10.9l5-3.6c2.6,3.7,5,7.5,7.1,11.5L260.5,83.9z M247.8,65.4c-2.8-3.2-5.8-6.3-8.9-9.2l4.1-4.5
				c3.3,3,6.5,6.3,9.4,9.7L247.8,65.4z M231.5,50.2c-3.4-2.6-7-4.9-10.7-7l3.1-5.3c3.9,2.2,7.7,4.8,11.3,7.5L231.5,50.2z
				 M212.4,38.7c-3.9-1.8-7.9-3.3-11.9-4.6l1.8-5.9c4.3,1.4,8.6,3,12.6,4.9L212.4,38.7z"/>
			<path class="st4" d="M272,119.8c-0.2-2-0.6-4-0.9-5.9l6.1-1.1c0.4,2.1,0.7,4.2,1,6.3L272,119.8z"/>
		</g>
	</g>
	<polygon class="st3" points="274,0 274,29.8 304.4,27.7 	"/>
</g>
<g>
	<g>
		<path class="st5" d="M66.1,303.7c0,0,0,0.8-0.1,1.2c-0.4,7.7-0.9,10.6-1.9,11.7c-0.7,0.8-1.3,0.9-2.4,1.1c-0.9,0.1-2.4,0.1-4,0
			c0-0.8-0.4-2.1-0.9-3c1.5,0.1,3,0.1,3.5,0.1s0.9,0,1.2-0.4c0.5-0.7,0.9-2.8,1.3-8.1h-8.2c0.5-2.7,1.1-7,1.3-10.4h6.9v-4.8h-7.7
			v-2.8h10.6v10.8h-7.3c-0.1,1.5-0.4,3.1-0.5,4.6L66.1,303.7L66.1,303.7z M83.5,318.4c-0.3-0.7-0.5-1.3-0.9-2.2
			c-5.8,0.5-11.7,0.9-15.9,1.2l-0.4-3.1c2.2-0.1,5-0.3,8.1-0.4v-4.6h-6.7v-9.3h6.7V297h3v3.1h7v9.3h-7v4.4l3.9-0.3
			c-0.5-0.9-1.1-1.9-1.6-2.7l2.6-1.1c1.6,2.3,3.5,5.4,4.2,7.4L83.5,318.4z M83.2,298.4c-0.4-0.7-0.8-1.5-1.3-2.3
			c-11.6,0.9-13.1,1.1-14,1.5c-0.1-0.5-0.7-2-1.1-2.7c0.5-0.1,1.2-0.7,1.8-1.5c0.7-0.8,2.8-3.6,4.2-6.5l3.2,0.8
			c-1.3,2.4-3.1,4.8-4.8,6.7l8.9-0.7c-0.8-0.9-1.6-1.9-2.3-2.7l2.3-1.3c2.2,2.2,4.6,5.1,5.7,7.1L83.2,298.4z M74.3,306.7v-4h-3.9v4
			H74.3z M77.3,302.7v4h4v-4H77.3z"/>
		<path class="st5" d="M101.5,287.9c-0.9,2.1-2.2,4.4-3.4,6.5v23.8h-3v-19.5c-1.3,1.7-2.7,3.2-4,4.6c-0.3-0.8-1.2-2.4-1.7-3.2
			c3.6-3.1,7.1-8.1,9.3-13.2L101.5,287.9z M115.5,314.4c1.9,0,2.2-1.5,2.4-7.3c0.8,0.5,2,1.2,2.8,1.3c-0.4,6.5-1.2,8.7-5.1,8.7h-6.2
			c-3.8,0-4.8-1.1-4.8-5.2v-24.6h3.2v9H120v3.1h-12.1v12.6c0,1.9,0.4,2.3,2,2.3H115.5z"/>
		<path class="st5" d="M131.8,311c-1.1,2.8-3,5.8-4.8,7.5c-0.5-0.5-1.7-1.5-2.4-2c1.8-1.6,3.4-3.9,4.2-6.3L131.8,311z M138.8,309.7
			h-12.2v-21.5h12.2V309.7z M135.6,290.7h-6.1v3.8h6.1V290.7z M135.6,296.9h-6.1v3.9h6.1V296.9z M135.6,303.2h-6.1v3.9h6.1V303.2z
			 M136,310.1c1.5,1.6,3.1,4,3.8,5.5l-2.7,1.5c-0.7-1.6-2.3-4-3.6-5.8L136,310.1z M156.4,297.7h-4.2v16.6c0,1.7-0.4,2.6-1.5,3.1
			c-1.1,0.5-2.7,0.5-5.2,0.5c-0.1-0.8-0.7-2.3-1.1-3.1c1.8,0.1,3.4,0.1,3.9,0c0.5,0,0.7-0.1,0.7-0.7v-12.4c-2.2,4.4-5,8.3-8.1,10.9
			c-0.5-0.7-1.5-1.8-2.2-2.3c3.6-2.6,7.1-7.7,9.1-12.8h-8.2v-3h9.4v-7.9h3.1v7.9h4.2L156.4,297.7L156.4,297.7z"/>
		<path class="st5" d="M169.5,308.9h5.8v2.7h-5.8v6.5h-3v-6.5h-6.2v-2.7h6.2v-3.2h-5.4v-2.7h2.8c-0.3-1.1-0.8-2.7-1.5-3.8l2.2-0.7
			h-4.3v-2.7h6.2v-3h-5.1v-2.7h5.1v-3.2h3v3.2h5v2.7h-5v3h5.8v2.7h-3.8l2.3,0.5c-0.7,1.2-1.3,2.7-2,3.9h3v2.7h-5.1L169.5,308.9
			L169.5,308.9z M164.9,298.4c0.7,1.2,1.3,2.8,1.6,3.9l-1.6,0.5h4c0.8-1.3,1.5-3.1,2-4.4H164.9z M190.7,300.4c-0.7,4-2,7.7-3.9,10.9
			c1.5,1.7,3.2,3.1,5.1,4c-0.7,0.5-1.6,1.8-2.2,2.6c-1.7-0.9-3.4-2.4-4.7-4c-1.2,1.8-2.8,3.1-4.4,4.3c-0.3-0.5-0.8-0.9-1.3-1.5v1.3
			h-3v-29.9h13.6v6.5c0,1.5-0.3,2.3-1.5,2.7c-1.1,0.5-2.8,0.5-5.5,0.5c-0.1-0.8-0.5-2-0.9-2.7c2,0,3.8,0,4.3,0
			c0.5,0,0.7-0.1,0.7-0.5V291h-7.7v8.7h9l0.5-0.1L190.7,300.4z M179.3,315.6c1.5-1.1,2.8-2.6,4-4c-1.6-2.6-3-5.7-4-8.9V315.6z
			 M181.9,302.4c0.8,2.3,1.7,4.4,3,6.3c1.1-2,1.9-4.2,2.4-6.3H181.9z"/>
		<path class="st5" d="M217.4,287.3c1.6,5.2,5.2,10.1,9.7,12.5c-0.7,0.7-1.7,2-2.3,3c-1.1-0.7-2.2-1.5-3.1-2.4c0,0.3,0,0.4,0,0.5
			c-0.4,10.5-0.9,14.4-2.2,15.7c-0.8,0.9-1.6,1.2-2.8,1.3c-1.1,0.1-3.2,0.1-5.4,0c0-0.9-0.5-2.3-1.1-3.2c2,0.3,4,0.3,4.8,0.3
			c0.7,0,1.1-0.1,1.5-0.5c0.8-0.8,1.2-4,1.6-12.1h-7.9c-0.9,6.6-3.1,12.6-11.8,15.9c-0.4-0.8-1.3-2.2-2-2.8
			c7.9-2.7,9.7-7.7,10.5-13.1h-6.5V300c-0.9,0.9-1.9,1.9-2.8,2.7c-0.5-0.7-1.9-1.9-2.7-2.4c3.9-2.8,7-7.4,8.7-12.5l3.4,0.8
			c-1.3,4-3.4,7.8-5.9,10.8h19.8c-2.6-2.7-4.6-5.8-5.8-9.1h-5.8v-3L217.4,287.3L217.4,287.3z"/>
		<path class="st5" d="M241.7,307.1c-0.5-1.1-1.6-3-2.7-4.7v15.7H236v-14.9c-1.2,3.5-2.7,6.7-4.2,8.9c-0.4-0.9-1.1-2.2-1.6-3
			c2.3-2.8,4.4-7.8,5.5-12.2h-4.6v-3h4.8v-7.1h3.1v7.1h4.8v3h-4.8v1.6c1.2,1.5,4,5.2,4.6,6.2L241.7,307.1z M261.8,301.3h-4.6v17
			h-3.1v-17h-5.5c0,5.2-0.7,12.2-3.8,16.8c-0.5-0.5-1.9-1.3-2.7-1.6c3.1-4.4,3.4-11,3.4-15.7v-10.2c4.2-0.8,9-2,11.7-3.4l2.7,2.6
			c-3.2,1.3-7.4,2.4-11.4,3.1v5.5h13.3L261.8,301.3L261.8,301.3z"/>
		<path class="st5" d="M295.4,294c0,0,0,1.1-0.1,1.6c-0.8,13.9-1.3,19-3,20.7c-0.9,1.1-1.9,1.5-3.1,1.6c-1.2,0.1-3.5,0.1-5.5,0
			c-0.1-0.9-0.5-2.3-1.1-3.2c2.3,0.3,4.3,0.3,5.2,0.3c0.8,0,1.2-0.1,1.6-0.5c1.2-1.1,1.9-5.8,2.4-17h-10.8
			c-0.5,7.1-2.8,15.3-12.6,21.1c-0.5-0.8-1.8-2-2.4-2.6c8.9-5.1,11.2-12.4,11.7-18.6h-10.6v-3.2h10.8v-0.8v-6.3h3.4v6.3v0.8h14.1
			L295.4,294L295.4,294z"/>
	</g>
</g>
</svg>
