<?xml version="1.0" encoding="utf-8"?>
<!-- Generator: Adobe Illustrator 24.3.0, SVG Export Plug-In . SVG Version: 6.00 Build 0)  -->
<svg version="1.1" id="圖層_1" xmlns="http://www.w3.org/2000/svg" xmlns:xlink="http://www.w3.org/1999/xlink" x="0px" y="0px"
	 viewBox="0 0 1150 317.5" style="enable-background:new 0 0 1150 317.5;" xml:space="preserve">
<style type="text/css">
	.st0{fill:#0C3755;}
	.st1{fill:#58595B;}
</style>
<g>
	<g>
		<path class="st0" d="M91.2,101C84.9,96.5,72,89.2,63.1,84.3l9.7-13.6c8.2,4.3,21.7,10.9,28.4,15.1L91.2,101z M65.2,157
			c8-11.6,19.6-31,28.7-49l13.1,12.5c-8,16.3-17.5,34.1-26.7,49.1L65.2,157z M97.7,58.6C91.9,53.9,79,46.6,70.3,41.4L80.4,28
			c8.4,4.4,21.6,11.2,28.1,15.6L97.7,58.6z M164.4,89v19.6h30.8v62h-17v-5.5h-45.4v6.4h-16v-62.9h30.8V89h-40.2V71.2h40.2V52.9
			c-9.9,1.6-19.9,2.7-29.4,3.5c-0.6-4.5-3-11.6-5-15.9c25.7-2.7,53.8-7.8,70.4-14.6l13.9,14.6c-9.8,3.8-21,6.8-32.9,9.2v21.3h38.3
			v17.7L164.4,89L164.4,89z M178.2,125.3h-45.4v22.9h45.4L178.2,125.3L178.2,125.3z"/>
		<path class="st0" d="M340.1,149.4c0,9.9-2.1,14.9-8.1,17.8c-6.2,3.1-15.3,3.4-29,3.3c-0.6-5-3.4-12.9-5.7-17.8
			c8.4,0.4,18.5,0.3,21.2,0.3c2.8,0,4-1,4-3.7v-23.4h-31.8v43.4h-18.2v-43.4h-30.8c-2.7,16.9-8.1,34.1-19,46.1
			c-2.8-3.4-10.1-9.8-14.2-11.9c16.5-18.6,17.7-46.4,17.7-68.2V36.4h113.9L340.1,149.4L340.1,149.4z M272.4,108.6V89.4H244v2.8
			c0,5-0.1,10.5-0.4,16.3L272.4,108.6L272.4,108.6z M244.1,54v18h28.4V54H244.1z M322.3,54h-31.8v18h31.8V54L322.3,54z M322.3,108.6
			V89.4h-31.8v19.2L322.3,108.6L322.3,108.6z"/>
		<path class="st0" d="M390.5,137.4c-4.8,13.3-13.3,26.7-21.7,35.1c-3.1-3.1-9.9-8.4-14.1-10.9c8.1-7,15.2-17.7,19-28.5L390.5,137.4
			z M420.3,131.7h-55.9V32h55.9V131.7z M402.8,46.6h-21.7v14.2h21.7V46.6z M402.8,74.5h-21.7v14.2h21.7V74.5z M402.8,102.6h-21.7
			v14.5h21.7V102.6z M408.2,132.4c6.8,7.7,13.6,17.9,16.9,25.3l-14.9,8.1c-2.8-7.1-9.7-18.3-16.2-26.4L408.2,132.4z M497.5,79.7
			h-16.6v70.1c0,9.2-1.6,14.2-7,17.2c-5.3,3-12.6,3.7-23.6,3.7c-0.7-5.1-3.7-13.1-6.2-18c7,0.3,13.8,0.3,16,0.3
			c2.4,0,3.1-0.7,3.1-3.3v-47c-8.9,18-20,33.8-32.2,44.4c-2.8-4-8.5-10.4-12.1-13.3c15.2-11.8,29.2-32.8,38.2-54.1h-33.1v-17h39.2
			V26.5h17.6v36.1h16.6L497.5,79.7L497.5,79.7z"/>
		<path class="st0" d="M547.5,65.8h24.1v15.6h-14.8l9.1,2.3c-2.6,5.4-5.3,10.8-7.7,15.8h10.4v15.6h-21.2v12.5h24.1v15.6h-24.1v27.7
			h-16.6v-27.7h-26.1v-15.6h26.1v-12.5h-22.4V99.5h10.6c-1-4.7-3.3-10.5-5.3-15.3l8.5-2.7h-17.3V65.8h26V55h-21.9V39.8h21.9V26.5
			h16.6v13.3h20.7V55h-20.7L547.5,65.8L547.5,65.8z M543.3,99.5c2.7-5.8,5.4-12.5,7.2-18h-23.1c2.6,5.3,5.1,11.5,5.8,15.8l-6.8,2.3
			L543.3,99.5L543.3,99.5z M641.7,89.2c-2.8,18.3-8.1,35.4-15.8,49.8c6.1,7,12.9,12.6,20.7,16.6c-3.8,3.4-9.1,10.1-11.8,14.6
			c-6.8-4.3-12.9-9.7-18.6-16.2c-5,6.8-10.6,12.6-17.2,17.6c-1.7-2.7-4.4-5.5-7.1-8.4v7.8h-16.3V32.6H638v29.2
			c0,7.9-1.7,12.5-7.5,14.9c-5.7,2.6-13.9,2.7-24.8,2.7c-0.7-5-3-11.4-5.1-15.9c7.4,0.3,15.8,0.3,17.9,0.3c2.3-0.1,3-0.6,3-2.3V48.8
			H592V86h35.9l2.8-0.9L641.7,89.2z M592,155.3c5.4-4.5,9.9-9.8,14.1-15.8c-5.7-9.5-10.2-20.4-14.1-32.1V155.3L592,155.3z
			 M604.5,100.6c2.7,8.1,6.2,16,10.4,23.1c3.3-7.1,5.8-15.1,7.8-23.1H604.5L604.5,100.6z"/>
		<path class="st0" d="M694.5,31.5c-3.3,10.4-7.5,21.2-12.1,31.4v108.3h-16.5V93.4c-3,4.7-6.2,9.1-9.2,12.8
			c-1.4-4.5-5.8-15.2-8.8-20c12.2-14.5,23.4-37.2,29.8-59.8L694.5,31.5z M784.6,70.2c-2.3,24.3-6.2,44.6-13.6,61.5
			c5.4,9.9,12.2,18.3,21.4,24.4c-3.1,3.3-8.4,10.1-10.6,14.6c-8-6.2-14.5-13.8-19.6-22.9c-5.8,9.1-13.5,16.5-22.6,22.9
			c-2-3.1-7.7-9.5-10.6-12.5c2-1.3,4.1-2.7,6.1-4.3h-28.8v11.1h-15.3V96.2H706V70.8h-17.3V54.2H706V28h16.9v26.1h15.8v16.6h-15.8
			v25.4h11.5c-1.4-2-2.7-3.8-3.7-5.1c10.4-15.3,16.2-39.8,19.3-64.9l16,2.8c-1.4,8.5-2.8,17.5-4.7,25.7h30.5v15.6L784.6,70.2
			L784.6,70.2z M721.6,112h-15.5v26.6h15.5V112z M737.4,152.3c7.1-6,12.6-12.9,17.2-21c-4.1-10.8-7-21.9-8.9-32.9
			c-1.7,3.1-3.3,6-5.3,8.5c-0.6-1.4-1.7-3.3-3-5.4L737.4,152.3L737.4,152.3z M757,70.2c-0.4,1.6-0.9,3-1.4,4.5
			c1.4,11.6,3.7,24.3,7.1,36.1c3.4-11.9,5.5-25.6,7-40.6L757,70.2L757,70.2z"/>
		<path class="st0" d="M937.8,49.5h-26.3c4.5,3.5,9.1,7.7,11.6,10.6l-9.9,9.2h20v27.1h-18.5V83.3h-93.1v13.2h-17.3V69.4h5.4
			c-2.7-3.3-8.2-9.4-11.6-11.9c8.9-8.1,17.3-20.4,22-32.7l15.9,4.7c-0.7,2-1.7,4.3-2.7,6.2h33.2v12.9c6.7-6.2,12.5-14.9,15.9-23.9
			l16.2,4.4c-0.7,2.1-1.7,4.4-2.7,6.5h41.7L937.8,49.5z M843,69.4c-3-4.3-9.1-10.2-13.8-14.5l5.5-5.1H826
			c-4.7,7.7-10.1,14.3-15.1,19.6L843,69.4L843,69.4z M840.9,131.4h81.6v40.2h-17.9v-4.3H841v4.3h-18.3V89.5h91.9v34.6h-73.7
			L840.9,131.4L840.9,131.4z M840.9,102.9v8.1H897v-8.1H840.9z M840.9,144.9v8.7h63.6v-8.7H840.9z M872.4,57.3
			c-2.8-2.6-6.1-5-8.5-6.5l1.4-1.1h-19.9c3.3,3.1,6.8,6.7,8.9,9.4l-10.8,10.2h17.2c-1.3-3-2.4-6.2-4-8.8L872.4,57.3z M909.6,69.4
			c-3.8-4.4-10.1-9.9-14.9-14.1l6.5-5.8h-13.5c-3.1,4.7-7,9.1-10.5,12.1c-1-1.1-2.6-2.3-4.3-3.7c2.1,3.3,4.4,7.7,5.7,11.4
			L909.6,69.4L909.6,69.4z"/>
		<path class="st0" d="M997.3,140.2c-16.6,6.1-34.6,11.9-49.1,16.8l-4.1-18.9c5.3-1.4,11.5-3.1,18.5-5.1V96.5h-15.2V79.6h15.2V52.2
			h-16.6V34.9h49.8v17.3h-16.2v27.4h13.6v16.9h-13.6v31.1c5-1.6,9.9-3.1,14.8-4.8L997.3,140.2z M1086.9,149.7v16.8h-97v-16.8h41.6
			V135h-31.2v-16.6h31.2V105h-30.2V32.6h78.8v72.3h-30.4v13.3h31.9v16.6h-31.9v14.9C1049.9,149.7,1086.9,149.7,1086.9,149.7z
			 M1017.5,61.3h15.5V48.3h-15.5V61.3z M1017.5,89.2h15.5V75.9h-15.5V89.2z M1063.1,48.3h-14.9v12.9h14.9V48.3z M1063.1,75.9h-14.9
			v13.3h14.9V75.9z"/>
	</g>
	<g>
		<path class="st1" d="M165.2,271.3c-3,8.2-8.4,16.3-13.8,21.4c-2-1.8-6.2-5.1-8.8-6.7c5.1-4.3,9.7-10.9,12.1-17.5L165.2,271.3z
			 M184,267.7h-35.4v-61.1H184V267.7z M172.9,215.6h-13.8v8.7h13.8V215.6z M172.9,232.6h-13.8v8.8h13.8V232.6z M172.9,250h-13.8v8.8
			h13.8V250z M176.3,268.3c4.3,4.7,8.5,10.9,10.6,15.5l-9.4,5c-1.8-4.4-6.1-11.2-10.2-16.2L176.3,268.3z M232.8,235.9h-10.5v43
			c0,5.7-1,8.7-4.4,10.5c-3.4,1.8-8,2.3-14.9,2.3c-0.4-3.1-2.3-8-4-11.1c4.4,0.1,8.7,0.1,10.1,0.1c1.6,0,2-0.4,2-2V250
			c-5.7,11.1-12.6,20.7-20.4,27.3c-1.8-2.4-5.4-6.4-7.7-8.2c9.7-7.2,18.5-20.2,24.1-33.2h-20.9v-10.5h24.8v-22.1h11.1v22.1h10.5
			L232.8,235.9L232.8,235.9z"/>
		<path class="st1" d="M268.2,227.5h15.2v9.5H274l5.7,1.4c-1.6,3.4-3.4,6.5-4.8,9.7h6.5v9.5H268v7.7h15.2v9.5H268v16.9h-10.5v-17
			H241v-9.5h16.5v-7.5h-14.2v-9.5h6.8c-0.7-2.8-2.1-6.5-3.3-9.4l5.4-1.6h-10.9v-9.5h16.3v-6.5h-13.9v-9.4h13.8v-8.2H268v8.2h13.1
			v9.4H268v6.4L268.2,227.5L268.2,227.5z M265.5,248.1c1.7-3.6,3.4-7.7,4.5-11.1h-14.6c1.6,3.3,3.3,7.1,3.7,9.7l-4.3,1.4H265.5z
			 M327.5,241.7c-1.8,11.2-5.1,21.6-9.9,30.5c3.8,4.3,8.2,7.7,13.1,10.2c-2.4,2.1-5.7,6.2-7.4,8.9c-4.3-2.6-8.2-6-11.8-9.9
			c-3.1,4.3-6.8,7.7-10.9,10.8c-1-1.6-2.7-3.4-4.5-5.1v4.8h-10.2v-84.8h39.3V225c0,4.8-1,7.7-4.8,9.1c-3.7,1.6-8.8,1.6-15.8,1.6
			c-0.4-3-1.8-7-3.3-9.6c4.7,0.1,9.9,0.1,11.4,0.1c1.4-0.1,1.8-0.4,1.8-1.4v-7.8h-18.2v22.7H319l1.8-0.4L327.5,241.7z M296.3,282.2
			c3.4-2.7,6.2-6,8.8-9.7c-3.7-5.8-6.5-12.5-8.8-19.6V282.2z M304.1,248.7c1.7,5,4,9.8,6.5,14.2c2.1-4.4,3.7-9.2,5-14.2H304.1
			L304.1,248.7z"/>
		<path class="st1" d="M426.2,276.1h-16.3v15.5h-10.8v-15.5h-17.6v-9.7h17.6v-8.8h-7.7c-1.3,3-2.6,5.7-4.1,8c-1.6-1.1-4.8-3-7.1-4.3
			v19.9c0,4.5-0.7,7.2-3.7,8.8c-3,1.6-7,1.8-12.6,1.8c-0.4-2.7-1.8-6.8-3.3-9.4c3.7,0.1,7.5,0.1,8.7,0.1c1.3-0.1,1.6-0.4,1.6-1.6
			v-13.9h-19c-1,9.1-3,18.5-7.7,25.4c-1.6-1.6-5.7-4.3-7.8-5.1c6.5-9.8,7.1-23.9,7.1-34.6V239c-1.8-1.8-5.5-5-7.7-6.4
			c6.5-7,11.6-18.2,14.3-29.5l9.9,2.1c-0.6,2.1-1.3,4.5-1.8,6.7h8.9l1-0.3l6.5,4c-1.3,3.7-3.3,8-5.1,11.8h4.7v0.1h6v6.1
			c8-3.7,10.9-9.4,12.1-16.3h-10.6v-9.4h35.2v0.1h6.8c0,0-0.1,2.4-0.1,3.7c-0.6,15.2-1.3,21.7-3.4,24.1c-1.7,2.1-3.7,2.8-6.2,3.1
			c-2.1,0.3-5.8,0.3-9.4,0.1c-0.1-2.7-1.3-6.5-2.7-8.8c3,0.3,5.7,0.3,7.1,0.3c1.3,0,2-0.1,2.7-1c0.9-1,1.4-4.5,1.8-12.6h-11.1
			c-1.6,9.9-5,17.9-14.6,23.3l8.2,1.6c-0.4,2-0.9,4-1.4,6h4.5v-8.4h10.8v8.4h14.6v9.5h-14.6v8.7h16.3L426.2,276.1L426.2,276.1z
			 M354.9,220.6c-1,2.4-2.1,4.7-3.3,6.8h8.2c1-2.1,1.8-4.5,2.7-6.8H354.9z M352.5,252.8c0,1.8,0,4-0.1,6h5.4V251h-5.4v1.8
			L352.5,252.8L352.5,252.8z M352.5,242.9h5.4v-7.1h-5.4V242.9z M365.4,242.9h5.4v-7.1h-5.4V242.9z M370.8,258.8V251h-5.4v7.8H370.8
			z M380.1,259.5c3.1-4.8,5.4-11.5,6.5-18.2c-0.7,0.4-1.3,0.7-2.1,1c-0.9-1.8-2.7-4.4-4.4-6.2V259.5L380.1,259.5z"/>
		<path class="st1" d="M465.2,262.7c-1.3-3-3.7-7.4-6-11.5V292h-10.9v-36.9c-2.8,8.1-6.2,15.5-10.1,20.7c-1-3.3-3.5-7.7-5.4-10.5
			c6-7.5,11.4-20.4,14.2-31.8h-11.6v-10.6h12.9v-19.6h10.9v19.6h12.9v10.6h-12.9v3.7c3.6,4.3,10.8,14.3,12.6,16.8L465.2,262.7z
			 M522.9,245.7h-12.2V292h-11.2v-46.3H487c-0.4,14.5-2.4,33.6-10.8,46c-2.1-1.7-6.8-4.5-9.4-5.7c8.7-12.6,9.4-31.1,9.4-44.4v-28
			c11.8-2.1,24.4-5.7,32.1-9.5l9.5,8.9c-8.9,3.7-20.2,6.7-30.8,8.7v13.5H523v10.5L522.9,245.7L522.9,245.7L522.9,245.7z"/>
		<path class="st1" d="M619,270.3h-26.8c8.9,4.3,18.5,9.1,24.3,12.8l-7.5,8.7c-6.1-4.3-16.6-10.2-26-14.9l5.1-6.5h-28.3l8,6.5
			c-8.2,5.4-20.2,11.5-29.4,15.2c-1.4-2.4-4.3-6.1-6.2-8.5c8.4-3.1,19.3-8.5,25.7-13.2h-26v-10.5h8.5l-1.6-49.1
			c6-1.8,13.3-4.8,18.2-7.1l4.8,9.2c-4,1.4-8.5,2.6-12.8,3.7l0.3,8.5h10.9v9.2h-10.7l0.3,8.2h10.6v9.2h-10.2l0.3,8h49.7
			c0.1-2.4,0.3-5,0.4-7.7H591v-9.4h9.9c0.1-2.7,0.1-5.4,0.3-8.2h-9.7V225h9.9c0-2.7,0-5.4,0.1-8.2h-10.9v-9.8h21.3
			c0,16.9-0.4,38.2-1.3,52.5h8.2L619,270.3L619,270.3L619,270.3z M573.6,239.3c-0.7,6.2-2.1,12.5-4.8,16.5c-1.4-1.3-5.1-3.4-7.1-4.5
			c2.4-3.5,3.1-8.4,3.6-13.5L573.6,239.3z M578.1,235.6h-14.3V204h9.7v6.5h14.9v9.4h-14.9v7h10.6v0.1h3.6v24.1c0,4-0.7,5.5-3.3,6.8
			c-2.4,1.1-6.2,1.1-10.8,1.1c-0.4-2.1-1.6-5-2.4-7c2.4,0.1,5.3,0.1,6.1,0.1c0.9,0,1.1-0.1,1.1-1L578.1,235.6L578.1,235.6z"/>
		<path class="st1" d="M715.7,217.5h-16.6c2.8,2.1,5.7,4.7,7.4,6.5l-6.2,5.7h12.6v16.6h-11.6v-8.1h-58.8v8.1h-10.9v-16.6h3.4
			c-1.7-2-5.3-5.7-7.4-7.4c5.7-5,10.9-12.5,13.9-20l9.9,2.8c-0.4,1.3-1,2.6-1.7,3.8h21v8c4.3-3.8,8-9.1,9.9-14.6l10.2,2.7
			c-0.4,1.3-1,2.7-1.7,4h26.4L715.7,217.5z M655.8,229.5c-1.8-2.6-5.7-6.2-8.7-8.8l3.6-3.1H645c-3,4.7-6.4,8.8-9.5,12.1h20.3V229.5
			L655.8,229.5z M654.5,267.6h51.5v24.6h-11.4v-2.6h-40.2v2.6H643V242h57.9v21.3h-46.6L654.5,267.6L654.5,267.6z M654.5,250.1v5H690
			v-5H654.5z M654.5,275.9v5.4h40.2v-5.4H654.5z M674.4,222.3c-1.8-1.6-3.8-3-5.4-4l0.9-0.7h-12.6c2.1,1.8,4.3,4.1,5.7,5.7l-6.8,6.2
			h10.8c-0.7-1.8-1.6-3.8-2.4-5.4L674.4,222.3z M698,229.5c-2.4-2.7-6.4-6.1-9.4-8.5l4.1-3.6h-8.5c-2,2.8-4.4,5.5-6.7,7.4
			c-0.7-0.7-1.6-1.4-2.7-2.3c1.3,2,2.7,4.7,3.6,7H698L698,229.5z"/>
		<path class="st1" d="M757.2,273c-10.5,3.7-21.9,7.4-31.1,10.4l-2.6-11.5c3.3-0.9,7.2-1.8,11.6-3.1v-22.4h-9.7v-10.4h9.7v-16.8
			h-10.5v-10.5H756v10.5h-10.2v16.8h8.5v10.4h-8.5v19c3.1-1,6.2-1.8,9.4-3L757.2,273z M813.7,278.8V289h-61.3v-10.2h26.3v-9.1h-19.7
			v-10.2h19.7v-8.2h-19v-44.3h49.7v44.3h-19.2v8.2h20.2v10.2h-20.2v9.1H813.7z M769.9,224.6h9.8v-8h-9.8V224.6z M769.9,241.7h9.8
			v-8.2h-9.8V241.7z M798.6,216.7h-9.4v8h9.4V216.7z M798.6,233.6h-9.4v8.2h9.4V233.6z"/>
		<path class="st1" d="M839,249c-3.6-3.4-11.6-7.7-17.7-10.4l5.8-8.5c6.2,2.3,14.2,6.2,18.3,9.4L839,249z M851,261
			c-5.1,9.8-11.2,20.7-16.8,30l-9.7-7.7c5.1-7.1,12.4-19,18-30L851,261z M844.6,223c-3.7-3.3-11.5-8-17.9-10.5l6.2-8.5
			c6,2.3,14.1,6.4,18.2,9.7L844.6,223z M879.1,256.2c-2.6,13.8-9.1,26.6-25.7,35.9c-2.1-2.4-6.5-6.4-9.4-8.1
			c14.3-7.5,20.6-17.2,23.3-27.8h-19.5v-10.6h21.2c0.1-3.1,0.3-6.2,0.3-9.5v-7.7h-16.6v-10.6h16.6v-14.5h11.4v14.5h22v28h7.1v10.6
			L879.1,256.2L879.1,256.2z M880.7,236.1c0,3.1-0.1,6.2-0.3,9.5h11.2v-17.2h-10.9L880.7,236.1L880.7,236.1z M890.8,256.5
			c6.4,9.2,15.5,22.1,19.7,29.7l-10.1,5.8c-4-7.8-12.6-21-19-30.8L890.8,256.5z"/>
		<path class="st1" d="M998.8,260.5c0,4.8-1,7.1-4.4,8.5c-3.3,1.3-7.5,1.4-12.6,1.4c7.2,3.7,16,6.8,25.6,8.5
			c-2.4,2.4-5.7,7.1-7.1,9.9c-12.2-3-23-9.1-30.8-15.5v18.7h-12.2v-18.9c-8.7,7.5-19.7,13.2-31.7,16.3c-1.6-2.8-4.7-7.2-7.1-9.5
			c15.8-3.1,30.5-10.2,38.8-19.6v-6.7h-18.2v16.9H927v-26.5h30.2v-4.5h-36.3v-9.7h25.7c-2-2.7-6-6.5-9.1-9.4l3.7-3.1h-5.7
			c-3,4.8-6.4,9.1-9.8,12.4c-1.6-1.8-5.4-6-7.5-7.7c5.5-5,10.9-12.5,13.8-20l9.9,2.8c-0.4,1.3-1,2.4-1.6,3.7h20.7v8.7h-13.5
			c2.4,2.1,5,4.5,6.4,6.2l-6.7,6.2h9.9v-5.1h8.4c-2.1-1.6-4.5-3.7-6.4-4.7c5.3-4.5,9.5-11.2,11.9-17.9l10.4,2.6
			c-0.4,1.3-1,2.7-1.6,4.1h26.3v8.5h-16.5c2.6,2,5.1,4.3,6.5,6l-7.5,6.5c-2-2.6-6.2-6.4-9.7-9.1l4-3.4H975c-1.7,2.8-3.7,5.4-5.7,7.5
			v5h34.4v9.7h-34.4v4.5h29.5L998.8,260.5L998.8,260.5z M969.3,262.3c3.1,2.7,7.1,5.4,11.9,8c-0.7-2.7-2.4-6.1-3.7-8.5
			c3.1,0.3,7.1,0.1,8.1,0.1c1.1,0,1.6-0.3,1.6-1.3v-6.7h-17.9L969.3,262.3L969.3,262.3z"/>
	</g>
</g>
</svg>
