<?xml version="1.0" encoding="utf-8"?>
<!-- Generator: Adobe Illustrator 24.3.0, SVG Export Plug-In . SVG Version: 6.00 Build 0)  -->
<svg version="1.1" id="圖層_1" xmlns="http://www.w3.org/2000/svg" xmlns:xlink="http://www.w3.org/1999/xlink" x="0px" y="0px"
	 viewBox="0 0 2600 595.3" style="enable-background:new 0 0 2600 595.3;" xml:space="preserve">
<style type="text/css">
	.st0{fill:none;stroke:#50A7B7;stroke-width:2;stroke-miterlimit:10;}
	.st1{fill:none;stroke:#1C2D5B;stroke-width:2;stroke-miterlimit:10;stroke-dasharray:5,3;}
	.st2{fill:none;stroke:#0C3755;stroke-width:2;stroke-miterlimit:10;}
	.st3{fill:none;stroke:#D0D2D3;stroke-width:3;stroke-linecap:round;stroke-miterlimit:10;stroke-dasharray:1.050000e-02,6.3157;}
	.st4{fill:none;stroke:#0C3755;stroke-width:3;stroke-miterlimit:10;}
	.st5{fill:#FFFFFF;stroke:#0C3755;stroke-width:3;stroke-miterlimit:10;}
	.st6{fill:#50A7B7;}
	.st7{fill:#0C3755;}
	.st8{fill:none;stroke:#0C3755;stroke-width:2;stroke-miterlimit:10;stroke-dasharray:5,3;}
	.st9{fill:none;stroke:#50A7B7;stroke-width:2;stroke-miterlimit:10;stroke-dasharray:5,3;}
	.st10{fill:#FFFFFF;stroke:#50A7B7;stroke-width:2;stroke-miterlimit:10;}
	.st11{fill:none;stroke:#D0D2D3;stroke-miterlimit:10;stroke-dasharray:5,3;}
	.st12{fill:#FFFFFF;stroke:#D0D2D3;stroke-width:2;stroke-miterlimit:10;}
	.st13{fill:#B5B5B6;}
</style>
<line class="st0" x1="1995" y1="529.2" x2="1995" y2="138.9"/>
<line class="st1" x1="468.8" y1="333.6" x2="468.8" y2="127.9"/>
<line class="st2" x1="901.7" y1="580.6" x2="901.7" y2="308.8"/>
<g>
	<polyline class="st3" points="-212.9,703.5 -9.1,604.9 181,481.5 385.1,382.9 576.1,258.9 651.5,286.1 728.3,285.5 800.1,313 
		875.1,312.3 1031.9,299 1184.4,257.5 1341.9,244.2 1494.7,202.7 1624.9,197.4 1750.6,163.7 1880.6,158.2 2006.9,124.3 2158,138.7 
		2308.7,124.5 2459.3,138.9 2610,124.7 	"/>
</g>
<g>
	<polyline class="st0" points="-169.4,317.1 -86.8,343 -0.4,340.7 83.8,366.6 163.6,327.4 250,315.9 330.7,276.7 395.2,318.9 
		468.3,334.1 532.1,376.3 601.1,353.8 671.9,359.5 738.9,337 830.1,335.4 916.8,305.6 1009.7,303.8 1083.1,239.8 1170.9,200.6 
		1246.6,135.9 1317.2,188.7 1397.7,215.3 1465.8,267.8 1543.3,257 1617.8,274.7 1691.4,263.9 1855.1,204.5 2008.1,118.5 
		2173.6,58.2 2307.5,-59.2 2458.2,-153.4 2591.6,-270.6 	"/>
</g>
<g>
	<polyline class="st4" points="-264.5,566.8 -193.4,546.6 -129.5,509.5 -58.4,489.3 5.6,452.2 76.7,432 141.1,394.8 250.3,380.8 
		355.3,349 464.2,335 569.2,303.3 678.1,289.4 783.8,257.5 813.6,280.6 849.2,286.6 876.9,309.1 912.2,315.3 940,337.7 973.7,343.5 
		1033.1,343.9 1091.1,326.5 1151.4,327 1209.2,309.3 1269.7,310 1327,292.6 1392.8,275.1 1452.2,240.7 1518.7,223.3 1577.9,188.9 
		1644.4,171.5 1704.5,136.9 1756.1,144.2 1806,133.4 1856.5,141 1906.5,130.2 1957.1,137.8 2006.7,127 2108.7,113.9 2207.3,82.8 
		2309.6,69.7 2408.2,38.5 2510.4,25.4 2609,-5.8 	"/>
</g>
<circle class="st5" cx="901.9" cy="309.3" r="20.9"/>
<circle class="st6" cx="1995" cy="126.8" r="20.9"/>
<circle class="st7" cx="467.4" cy="332.7" r="20.9"/>
<line class="st8" x1="1707.2" y1="382.2" x2="1707.2" y2="134.8"/>
<path class="st5" d="M1707.2,120.4c7.2,0,13.1,5.9,13.1,13.1c0,7.2-5.9,13.1-13.1,13.1c-7.2,0-13.1-5.9-13.1-13.1
	C1694.1,126.2,1700,120.4,1707.2,120.4z"/>
<line class="st9" x1="1245.6" y1="351.9" x2="1245.6" y2="131.8"/>
<line class="st9" x1="329.8" y1="488.8" x2="329.8" y2="274.2"/>
<circle class="st10" cx="1245.6" cy="133.4" r="13.1"/>
<circle class="st10" cx="329.8" cy="274.2" r="13.1"/>
<line class="st11" x1="578.6" y1="480.6" x2="578.6" y2="257"/>
<circle class="st12" cx="578.6" cy="252.4" r="13.1"/>
<g>
	<g>
		<path class="st7" d="M2031,529.2v-6.4c-4.1,0.7-8.5,0-10.8-1.1l1.8-6.6c2.5,1.1,6.4,1.8,10.3,1.1c4.1-0.7,7.1-3.2,7.1-6.4
			c0-3-2.3-4.6-7.3-5.5c-6.9-1.4-11.5-3.7-11.5-9.9c0-5.7,3.9-10.8,10.8-13.1v-6.4l5.5-0.9v6.2c4.1-0.7,7.1,0,9.2,0.7l-1.8,6.4
			c-1.6-0.5-4.6-1.6-8.9-0.7c-4.6,0.7-6.4,3.4-6.4,5.7c0,2.8,2.3,3.9,8,5c7.3,1.6,10.8,4.6,10.8,10.5c0,5.7-3.9,11.2-11.2,13.8v6.9
			L2031,529.2z"/>
		<path class="st7" d="M2066.1,481.7L2066.1,481.7l-8,5.3l-1.4-6l10.6-6.9l6.9-1.1v43.3l-7.8,1.4v-36H2066.1z"/>
		<path class="st7" d="M2100,476L2100,476l-8,5.3l-1.4-6l10.5-6.9l6.9-1.1v43.3l-8,1.4L2100,476L2100,476z"/>
		<path class="st7" d="M2118.8,516.6c1.8-5.3,3.7-12.6,4.4-18.3l8.5-2.1c-1.8,6.6-4.8,14.2-7.3,19L2118.8,516.6z"/>
		<path class="st7" d="M2153.2,502.8v-11l-19.5,3.2v-5.3l17.7-29.8l9.6-1.6v26.1l5.5-0.9v6.2l-5.5,0.9v11L2153.2,502.8z
			 M2153.2,485.6v-11.7c0-2.5,0-5,0.2-7.6h-0.2c-1.4,3-2.5,5.3-3.9,8l-8,13.1v0.2L2153.2,485.6z"/>
		<path class="st7" d="M2198.8,451.9v5.3l-18.3,41l-8.7,1.4l18.1-39.4v-0.2l-20.4,3.4v-6.9L2198.8,451.9z"/>
		<path class="st7" d="M2232.8,446.2v5.3l-18.3,41l-8.7,1.4l18.1-39.4v-0.2l-20.4,3.4v-6.9L2232.8,446.2z"/>
		<path class="st7" d="M2234.6,497.1c1.8-5.3,3.7-12.6,4.4-18.3l8.5-2.1c-1.8,6.6-4.8,14.2-7.6,19L2234.6,497.1z"/>
		<path class="st7" d="M2277.5,444.4c-1.1,0.2-2.5,0.5-4.1,0.9c-8.9,2.5-13.5,8.9-14.4,15.1h0.2c2.1-2.8,5.5-5,9.6-5.7
			c7.6-1.1,13.3,3,13.3,11.9c0,8.3-6,16.5-15.1,18.1c-10.5,1.8-16.3-5.3-16.3-15.8c0-8.3,3-15.6,7.6-20.6c3.9-4.4,9.2-7.3,15.4-8.9
			c1.8-0.5,3.2-0.7,4.1-0.9L2277.5,444.4z M2273.6,468.2c0-5-2.8-8-7.6-7.3c-3,0.5-5.7,2.8-7.1,5.7c-0.2,0.7-0.5,1.6-0.5,2.8
			c0.2,5.7,2.8,9.9,8,8.9C2270.8,477.6,2273.6,473.5,2273.6,468.2z"/>
		<path class="st7" d="M2314.9,432.4v5.3l-18.3,41l-8.7,1.4l18.1-39.4v-0.2l-20.4,3.4V437L2314.9,432.4z"/>
		<path class="st7" d="M2322.4,468.4c1.1,0,2.5-0.5,4.6-0.9c3.2-0.9,6.4-2.5,8.7-4.8c2.8-2.8,4.8-6.4,5.5-10.5h-0.2
			c-2.3,2.8-5.3,4.8-9.4,5.5c-7.6,1.4-13.1-3.2-13.1-11.2c0-8.3,6.4-16.5,15.6-18.1c10.1-1.6,15.4,5.3,15.4,15.8
			c0,9.2-3,16.3-7.6,21.3c-3.9,4.1-8.9,7.1-14.7,8.5c-1.8,0.5-3.7,0.9-4.8,0.9L2322.4,468.4L2322.4,468.4z M2326.5,444.6
			c0,4.4,2.5,7.6,7.1,6.6c3.2-0.5,5.7-2.5,6.9-4.8c0.2-0.7,0.5-1.4,0.5-2.5c0-6-2.1-10.5-7.6-9.6
			C2329.5,435.2,2326.5,439.3,2326.5,444.6z"/>
	</g>
</g>
<g>
	<g>
		<path class="st13" d="M2017.9,445.5c7.8-8.7,12.4-15.1,12.4-19.5c0-3-1.6-4.4-4.4-3.9c-2.1,0.5-3.9,2.1-5.3,4.1l-3.2-2.5
			c2.5-3.4,5.3-5.5,9.2-6.2c5.5-1.1,8.9,1.8,8.9,7.3c0,5.3-4.4,11.9-9.6,18.1c1.4-0.5,3.4-0.9,4.6-1.1l6.2-1.1v4.8l-19.3,3.9
			L2017.9,445.5L2017.9,445.5z"/>
		<path class="st13" d="M2040.6,429.7c0-10.1,3.9-15.8,9.6-17c5.7-1.1,9.6,3,9.6,13.1c0,10.1-3.9,16.1-9.6,17.2
			C2044.5,444.4,2040.6,439.8,2040.6,429.7z M2054.6,426.9c0-8.3-1.8-10.1-4.4-9.6c-2.5,0.5-4.4,3.2-4.4,11.5
			c0,8.3,1.8,10.3,4.4,9.9C2052.8,438.2,2054.6,435.2,2054.6,426.9z"/>
		<path class="st13" d="M2063.5,436.6c7.8-8.7,12.4-15.1,12.4-19.5c0-3-1.6-4.4-4.4-3.9c-2.1,0.5-3.9,2.1-5.3,4.1l-3-2.5
			c2.5-3.4,5.3-5.5,9.2-6.2c5.5-1.1,8.9,1.8,8.9,7.3c0,5.3-4.4,11.9-9.6,18.1c1.4-0.5,3.4-0.9,4.6-1.1l6.2-1.1v4.8l-19.3,3.9
			L2063.5,436.6L2063.5,436.6z"/>
		<path class="st13" d="M2085.6,432.2l2.8-4.1c1.6,1.4,3.9,2.3,6.4,1.8c3-0.5,4.8-2.5,4.8-5c0-3-1.6-4.4-7.8-3.2v-4.1
			c5.3-1.1,6.9-3.2,6.9-5.7c0-2.3-1.4-3.4-3.9-3c-2.1,0.5-3.7,1.8-5.5,3.7l-3-3c2.5-2.8,5.3-4.6,8.7-5.3c5.5-1.1,9.4,0.9,9.4,6
			c0,3.2-1.8,5.7-4.8,7.6v0.2c3.2,0.2,5.7,2.3,5.7,6c0,5.3-4.6,9.4-10.1,10.5C2090.6,435.2,2087.6,434,2085.6,432.2z"/>
	</g>
</g>
<g>
	<path class="st13" d="M501,145.5l7.8-8.9c1.5-1.7,2.2-3.1,2.2-4.5c0-1.7-1.3-2.7-3.2-2.4c-1.8,0.3-3.2,1.7-4.1,3.8l-3.1-1.5
		c1.2-2.7,3.4-5.3,7.4-6c4.3-0.7,6.9,1.8,6.9,5.4c0,2.2-1,4.3-3.4,7l-5.2,5.8l8.7-1.5v3.5l-14.1,2.4L501,145.5L501,145.5z"/>
	<path class="st13" d="M519,135c0-6.3,3.4-11.6,8-12.4c4.8-0.8,8.3,3.2,8.2,9.5c0.1,6.3-3.4,11.5-8,12.3
		C522.5,145.4,519,141.3,519,135z M531.3,132.9c0-4.3-1.7-6.9-4.3-6.5c-2.4,0.4-4.1,3.6-4.1,7.9c0,4.3,1.7,6.9,4.2,6.5
		C529.6,140.4,531.3,137.2,531.3,132.9z"/>
	<path class="st13" d="M544.6,141.1v-16.2l-3.3,3.8l-2.4-2.3l5.6-6.3l4-0.7v21L544.6,141.1z"/>
	<path class="st13" d="M569.6,123.3c0,2.3-0.7,4.1-3.3,8.5l-4.2,6.8l-4.5,0.8l4.7-7.8c-0.1,0.1-0.3,0.1-0.4,0.1
		c-4.6,0.8-7.6-2-7.6-5.7c0-4.2,3.1-8,7.6-8.8C566.3,116.3,569.6,119.1,569.6,123.3z M565.7,123.9c0-2.1-1.6-3.5-3.7-3.1
		c-2.1,0.4-3.7,2.3-3.7,4.4c0,2.1,1.6,3.5,3.7,3.1C564,127.9,565.7,126,565.7,123.9z"/>
</g>
<g>
	<path class="st7" d="M521.2,172.1c-1.4-1.7-4.1-3-7.3-2.4c-2.9,0.5-4.6,2.1-4.6,3.9c0,5.3,16.3,0.1,16.3,10.4
		c0,4.9-3.4,9.1-8.8,11.1v4.5l-5,0.9V196c-5.1,0.4-8.3-1.4-10.1-3.8l4.3-4.8c1.9,2.3,4.7,3.1,7.9,2.6c3.4-0.6,5.3-2.3,5.3-4.5
		c0-5.7-16.3-0.4-16.3-10.5c0-4.7,3.6-8.8,9-10.5V160l5-0.9v4.4c3.8,0,6.8,1.4,8.5,3.7L521.2,172.1z"/>
	<path class="st7" d="M553.7,168.3c0,3.4-1,6.1-5,12.7l-6.3,10.2l-6.8,1.2l7-11.7c-0.2,0.1-0.4,0.1-0.6,0.1
		c-6.9,1.2-11.4-3-11.4-8.6c0-6.3,4.7-12.1,11.4-13.2C548.8,157.9,553.7,162,553.7,168.3z M547.8,169.3c0-3.1-2.5-5.2-5.6-4.7
		c-3.2,0.5-5.5,3.4-5.5,6.6s2.4,5.2,5.5,4.7C545.4,175.4,547.8,172.5,547.8,169.3z"/>
	<path class="st7" d="M559.3,193.5l-5,0.9l2.8-13l6.3-1.1L559.3,193.5z"/>
	<path class="st7" d="M567.7,181.7l4.3-4.7c1.7,2.3,3.7,3,6.5,2.5c3.8-0.6,5.5-3.1,5.5-5.8c0-3.2-2.1-4.7-6.4-4l-3.3,0.6v-3.4
		l7.7-9.2l-12.4,2.1v-5.3l19.5-3.3v4.6l-7.8,9.1c5.8,0,8.6,3.1,8.6,7.9c0,5.9-4,11.2-11.7,12.5C573.4,186.1,569.8,184.6,567.7,181.7
		z"/>
	<path class="st7" d="M603.7,180.2v-24.4l-4.9,5.7l-3.5-3.4l8.3-9.4l6.1-1v31.5L603.7,180.2z"/>
	<path class="st7" d="M618.5,161.9c0-9.5,5.1-17.4,12.1-18.5c7.2-1.2,12.4,4.9,12.3,14.3c0.1,9.5-5,17.3-12.1,18.6
		C623.7,177.5,618.5,171.4,618.5,161.9z M636.9,158.8c0-6.4-2.5-10.4-6.4-9.7c-3.6,0.6-6.2,5.4-6.2,11.8c0,6.4,2.6,10.4,6.3,9.7
		C634.4,170,636.9,165.2,636.9,158.8z"/>
	<path class="st7" d="M651.4,177.7l-5,0.9l2.8-13l6.3-1.1L651.4,177.7z"/>
	<path class="st7" d="M662.3,170.2l11.7-28.2l-13.9,2.4V139l20.1-3.4v4.7l-11.6,28.8L662.3,170.2z"/>
	<path class="st7" d="M696.5,158.3l-14.7,2.5v-5.3l15.1-22.8l5.3-0.9V152l4.4-0.8v5.3l-4.4,0.8v6.1l-5.8,1L696.5,158.3L696.5,158.3z
		 M696.5,140.7l-9.2,13.9l9.2-1.6V140.7z"/>
	<path class="st7" d="M733.1,137.7c0,3.4-1,6.1-5,12.7l-6.3,10.2l-6.8,1.2l7-11.7c-0.2,0.1-0.4,0.1-0.6,0.1
		c-6.9,1.2-11.4-3-11.4-8.6c0-6.3,4.7-12.1,11.4-13.2C728.2,127.2,733.1,131.4,733.1,137.7z M727.1,138.7c0-3.1-2.5-5.2-5.6-4.7
		c-3.2,0.5-5.5,3.4-5.5,6.6s2.4,5.2,5.5,4.7C724.7,144.7,727.1,141.8,727.1,138.7z"/>
</g>
</svg>
