<?xml version="1.0" encoding="utf-8"?>
<!-- Generator: Adobe Illustrator 24.3.0, SVG Export Plug-In . SVG Version: 6.00 Build 0)  -->
<svg version="1.1" id="圖層_1" xmlns="http://www.w3.org/2000/svg" xmlns:xlink="http://www.w3.org/1999/xlink" x="0px" y="0px"
	 viewBox="0 0 2600 753.1" style="enable-background:new 0 0 2600 753.1;" xml:space="preserve">
<style type="text/css">
	.st0{fill:none;stroke:#50A7B7;stroke-width:2;stroke-miterlimit:10;}
	.st1{fill:none;stroke:#1C2D5B;stroke-width:2;stroke-miterlimit:10;stroke-dasharray:5,3;}
	.st2{fill:none;stroke:#0C3755;stroke-width:2;stroke-miterlimit:10;}
	.st3{fill:none;stroke:#D0D2D3;stroke-width:3;stroke-linecap:round;stroke-miterlimit:10;stroke-dasharray:1.050000e-02,6.3157;}
	.st4{fill:none;stroke:#0C3755;stroke-width:3;stroke-miterlimit:10;}
	.st5{fill:#FFFFFF;stroke:#1C2D5B;stroke-width:3;stroke-miterlimit:10;}
	.st6{fill:#50A7B7;}
	.st7{fill:#0C3755;}
	.st8{fill:none;stroke:#0C3755;stroke-width:2;stroke-miterlimit:10;stroke-dasharray:5,3;}
	.st9{fill:#FFFFFF;stroke:#0C3755;stroke-width:3;stroke-miterlimit:10;}
	.st10{fill:none;stroke:#50A7B7;stroke-width:2;stroke-miterlimit:10;stroke-dasharray:5,3;}
	.st11{fill:#FFFFFF;stroke:#50A7B7;stroke-width:2;stroke-miterlimit:10;}
	.st12{fill:none;stroke:#D0D2D3;stroke-miterlimit:10;stroke-dasharray:5,3;}
	.st13{fill:#FFFFFF;stroke:#D0D2D3;stroke-width:2;stroke-miterlimit:10;}
	.st14{fill:#B5B5B6;}
</style>
<line class="st0" x1="2034.9" y1="608.7" x2="2034.9" y2="242.7"/>
<line class="st1" x1="603.3" y1="425.3" x2="603.3" y2="232.3"/>
<line class="st2" x1="1009.4" y1="656.9" x2="1009.4" y2="402"/>
<g>
	<polyline class="st3" points="-36.1,772.2 155.1,679.7 333.4,564 524.8,471.5 704,355.2 774.7,380.7 846.8,380.1 914.1,405.9 
		984.5,405.3 1131.6,392.8 1274.6,353.9 1422.4,341.4 1565.6,302.5 1687.8,297.5 1805.7,265.9 1927.6,260.7 2046.1,228.9 
		2187.9,242.4 2329.2,229.1 2470.5,242.7 2611.8,229.3 	"/>
</g>
<g>
	<polyline class="st0" points="4.7,409.8 82.2,434.1 163.3,431.9 242.2,456.2 317,419.5 398.1,408.7 473.8,371.9 534.3,411.5 
		602.9,425.7 662.7,465.3 727.4,444.2 793.9,449.6 856.7,428.5 942.3,427 1023.6,399 1110.7,397.3 1179.5,337.3 1261.9,300.5 
		1332.9,239.9 1399.1,289.3 1474.6,314.3 1538.5,363.5 1611.2,353.4 1681.1,370 1750.2,359.9 1903.7,304.2 2047.2,223.5 2202.5,167 
		2328.1,56.8 2469.4,-31.6 2594.6,-141.5 	"/>
</g>
<g>
	<polyline class="st4" points="-84.5,644 -17.9,625.1 42.2,590.2 108.8,571.3 168.8,536.5 235.5,517.5 296,482.7 398.3,469.6 
		496.9,439.7 599,426.6 697.5,396.9 799.7,383.8 898.9,353.9 926.8,375.6 960.2,381.2 986.2,402.3 1019.3,408.1 1045.3,429.1 
		1076.9,434.5 1132.7,435 1187.1,418.6 1243.6,419 1297.8,402.5 1354.6,403.1 1408.4,386.8 1470.1,370.4 1525.8,338.2 1588.2,321.8 
		1643.7,289.6 1706.1,273.2 1762.4,240.7 1810.8,247.6 1857.7,237.5 1905,244.6 1951.9,234.5 1999.5,241.6 2045.9,231.5 
		2141.6,219.2 2234.1,190 2330,177.7 2422.5,148.5 2518.5,136.2 2611,106.9 	"/>
</g>
<ellipse transform="matrix(0.1602 -0.9871 0.9871 0.1602 450.6234 1334.5902)" class="st5" cx="1009.6" cy="402.5" rx="19.6" ry="19.6"/>
<circle class="st6" cx="2034.9" cy="231.3" r="19.6"/>
<circle class="st7" cx="602" cy="424.4" r="19.6"/>
<line class="st8" x1="1765" y1="470.9" x2="1765" y2="238.8"/>
<circle class="st9" cx="1765" cy="237.5" r="12.3"/>
<line class="st10" x1="1332" y1="442.5" x2="1332" y2="236"/>
<line class="st10" x1="473" y1="570.9" x2="473" y2="369.6"/>
<circle class="st11" cx="1332" cy="237.5" r="12.3"/>
<circle class="st11" cx="473" cy="369.6" r="12.3"/>
<line class="st12" x1="706.3" y1="563.1" x2="706.3" y2="353.4"/>
<circle class="st13" cx="706.3" cy="349.1" r="12.3"/>
<g>
	<g>
		<path class="st7" d="M2068.7,472.3v-6c-3.9,0.6-8,0-10.1-1.1l1.7-6.2c2.4,1.1,6,1.7,9.7,1.1c3.9-0.6,6.7-3,6.7-6
			c0-2.8-2.1-4.3-6.9-5.2c-6.5-1.3-10.8-3.4-10.8-9.2c0-5.4,3.7-10.1,10.1-12.3v-6l5.2-0.9v5.8c3.9-0.6,6.7,0,8.6,0.6l-1.7,6
			c-1.5-0.4-4.3-1.5-8.4-0.6c-4.3,0.6-6,3.2-6,5.4c0,2.6,2.1,3.7,7.5,4.7c6.9,1.5,10.1,4.3,10.1,9.9c0,5.4-3.7,10.5-10.5,12.9v6.5
			L2068.7,472.3z"/>
		<path class="st7" d="M2101.6,427.8L2101.6,427.8l-7.5,4.9l-1.3-5.6l9.9-6.5l6.5-1.1v40.6l-7.3,1.3v-33.8H2101.6z"/>
		<path class="st7" d="M2133.5,422.4L2133.5,422.4l-7.5,4.9l-1.3-5.6l9.9-6.5l6.5-1.1v40.6l-7.5,1.3L2133.5,422.4L2133.5,422.4z"/>
		<path class="st7" d="M2151.1,460.5c1.7-4.9,3.4-11.8,4.1-17.2l8-1.9c-1.7,6.2-4.5,13.3-6.9,17.9L2151.1,460.5z"/>
		<path class="st7" d="M2183.4,447.6v-10.3l-18.3,3v-4.9l16.6-28l9-1.5v24.5l5.2-0.9v5.8l-5.2,0.9v10.3L2183.4,447.6z M2183.4,431.5
			v-11c0-2.4,0-4.7,0.2-7.1h-0.2c-1.3,2.8-2.4,4.9-3.7,7.5l-7.5,12.3v0.2L2183.4,431.5z"/>
		<path class="st7" d="M2226.2,399.9v4.9l-17.2,38.5l-8.2,1.3l17-37v-0.2l-19.1,3.2v-6.5L2226.2,399.9z"/>
		<path class="st7" d="M2258,394.5v4.9l-17.2,38.5l-8.2,1.3l17-37V402l-19.1,3.2v-6.5L2258,394.5z"/>
		<path class="st7" d="M2259.7,442.2c1.7-4.9,3.4-11.8,4.1-17.2l8-1.9c-1.7,6.2-4.5,13.3-7.1,17.9L2259.7,442.2z"/>
		<path class="st7" d="M2299.9,392.8c-1.1,0.2-2.4,0.4-3.9,0.9c-8.4,2.4-12.7,8.4-13.6,14.2h0.2c1.9-2.6,5.2-4.7,9-5.4
			c7.1-1.1,12.5,2.8,12.5,11.2c0,7.7-5.6,15.5-14.2,17c-9.9,1.7-15.3-4.9-15.3-14.8c0-7.7,2.8-14.6,7.1-19.4
			c3.7-4.1,8.6-6.9,14.4-8.4c1.7-0.4,3-0.6,3.9-0.9L2299.9,392.8z M2296.3,415.1c0-4.7-2.6-7.5-7.1-6.9c-2.8,0.4-5.4,2.6-6.7,5.4
			c-0.2,0.6-0.4,1.5-0.4,2.6c0.2,5.4,2.6,9.2,7.5,8.4C2293.7,423.9,2296.3,420.1,2296.3,415.1z"/>
		<path class="st7" d="M2335,381.6v4.9l-17.2,38.5l-8.2,1.3l17-37v-0.2l-19.1,3.2v-6.5L2335,381.6z"/>
		<path class="st7" d="M2342.1,415.3c1.1,0,2.4-0.4,4.3-0.9c3-0.9,6-2.4,8.2-4.5c2.6-2.6,4.5-6,5.2-9.9h-0.2
			c-2.1,2.6-4.9,4.5-8.8,5.2c-7.1,1.3-12.3-3-12.3-10.5c0-7.7,6-15.5,14.6-17c9.5-1.5,14.4,4.9,14.4,14.8c0,8.6-2.8,15.3-7.1,20
			c-3.7,3.9-8.4,6.7-13.8,8c-1.7,0.4-3.4,0.9-4.5,0.9L2342.1,415.3L2342.1,415.3z M2346,393c0,4.1,2.4,7.1,6.7,6.2
			c3-0.4,5.4-2.4,6.5-4.5c0.2-0.6,0.4-1.3,0.4-2.4c0-5.6-1.9-9.9-7.1-9C2348.8,384.2,2346,388,2346,393z"/>
	</g>
</g>
<g>
	<g>
		<path class="st14" d="M2056.5,393.8c7.3-8.2,11.6-14.2,11.6-18.3c0-2.8-1.5-4.1-4.1-3.7c-1.9,0.4-3.7,1.9-4.9,3.9l-3-2.4
			c2.4-3.2,4.9-5.2,8.6-5.8c5.2-1.1,8.4,1.7,8.4,6.9c0,4.9-4.1,11.2-9,17c1.3-0.4,3.2-0.9,4.3-1.1l5.8-1.1v4.5l-18.1,3.7
			L2056.5,393.8L2056.5,393.8z"/>
		<path class="st14" d="M2077.8,379c0-9.5,3.7-14.8,9-15.9c5.4-1.1,9,2.8,9,12.3c0,9.5-3.7,15.1-9,16.1
			C2081.4,392.8,2077.8,388.5,2077.8,379z M2090.9,376.4c0-7.7-1.7-9.5-4.1-9c-2.4,0.4-4.1,3-4.1,10.8c0,7.7,1.7,9.7,4.1,9.2
			C2089.1,387,2090.9,384.2,2090.9,376.4z"/>
		<path class="st14" d="M2099.3,385.4c7.3-8.2,11.6-14.2,11.6-18.3c0-2.8-1.5-4.1-4.1-3.7c-1.9,0.4-3.7,1.9-4.9,3.9l-2.8-2.4
			c2.4-3.2,4.9-5.2,8.6-5.8c5.2-1.1,8.4,1.7,8.4,6.9c0,4.9-4.1,11.2-9,17c1.3-0.4,3.2-0.9,4.3-1.1l5.8-1.1v4.5l-18.1,3.7
			L2099.3,385.4L2099.3,385.4z"/>
		<path class="st14" d="M2119.9,381.4l2.6-3.9c1.5,1.3,3.7,2.1,6,1.7c2.8-0.4,4.5-2.4,4.5-4.7c0-2.8-1.5-4.1-7.3-3v-3.9
			c4.9-1.1,6.5-3,6.5-5.4c0-2.2-1.3-3.2-3.7-2.8c-1.9,0.4-3.4,1.7-5.2,3.4l-2.8-2.8c2.4-2.6,4.9-4.3,8.2-4.9
			c5.2-1.1,8.8,0.9,8.8,5.6c0,3-1.7,5.4-4.5,7.1v0.2c3,0.2,5.4,2.1,5.4,5.6c0,4.9-4.3,8.8-9.5,9.9
			C2124.6,384.2,2121.8,383.1,2119.9,381.4z"/>
	</g>
</g>
<path class="st14" d="M633.6,248.9l7.3-8.4c1.4-1.6,2.1-2.9,2.1-4.2c0-1.6-1.2-2.6-3-2.3c-1.7,0.3-3,1.6-3.8,3.5l-2.9-1.4
	c1.1-2.5,3.2-5,6.9-5.6c4-0.7,6.5,1.7,6.5,5.1c0,2.1-0.9,4-3.2,6.6l-4.8,5.4l8.1-1.4v3.3l-13.2,2.3L633.6,248.9L633.6,248.9z"/>
<path class="st14" d="M650.4,239c0-5.9,3.2-10.8,7.5-11.6c4.5-0.8,7.8,3,7.7,8.9c0.1,5.9-3.1,10.8-7.5,11.6
	C653.7,248.7,650.4,244.9,650.4,239z M662,237c0-4-1.6-6.5-4-6.1c-2.3,0.4-3.8,3.4-3.8,7.4c0,4,1.6,6.5,3.9,6.1
	C660.4,244,662,241,662,237z"/>
<path class="st14" d="M674.5,244.7v-15.2l-3.1,3.6l-2.2-2.1l5.2-5.9l3.8-0.6v19.7L674.5,244.7z"/>
<path class="st14" d="M697.9,228c0,2.1-0.6,3.8-3.1,7.9l-3.9,6.4l-4.2,0.7l4.4-7.3c-0.1,0.1-0.2,0.1-0.4,0.1
	c-4.3,0.7-7.1-1.9-7.1-5.4c0-4,2.9-7.5,7.1-8.3C694.8,221.4,697.9,224,697.9,228z M694.2,228.6c0-2-1.5-3.2-3.5-2.9
	c-2,0.3-3.5,2.1-3.5,4.1s1.5,3.2,3.5,2.9C692.7,232.4,694.2,230.6,694.2,228.6z"/>
<g>
	<path class="st7" d="M652.5,273.7c-1.3-1.6-3.8-2.8-6.8-2.3c-2.7,0.5-4.3,1.9-4.3,3.7c0,4.9,15.3,0.1,15.3,9.7
		c0,4.6-3.2,8.5-8.3,10.4v4.2l-4.7,0.8v-4.1c-4.8,0.4-7.8-1.3-9.5-3.6l4-4.5c1.8,2.1,4.4,2.9,7.4,2.4c3.2-0.5,5-2.1,5-4.3
		c0-5.4-15.3-0.3-15.3-9.9c0-4.4,3.4-8.2,8.4-9.9v-4.1l4.7-0.8v4.2c3.6,0,6.4,1.4,8,3.4L652.5,273.7z"/>
	<path class="st7" d="M683,270.2c0,3.2-1,5.7-4.7,11.9l-5.9,9.5l-6.4,1.1l6.6-11c-0.2,0.1-0.4,0.1-0.5,0.1c-6.5,1.1-10.7-2.8-10.7-8
		c0-6,4.4-11.3,10.7-12.4C678.4,260.4,683,264.3,683,270.2z M677.5,271.2c0-3-2.3-4.9-5.2-4.4c-3,0.5-5.2,3.2-5.2,6.2
		c0,3,2.2,4.9,5.2,4.4C675.2,276.8,677.5,274.1,677.5,271.2z"/>
	<path class="st7" d="M688.3,293.8l-4.7,0.8l2.6-12.2l5.9-1L688.3,293.8z"/>
	<path class="st7" d="M696.1,282.8l4-4.4c1.6,2.1,3.5,2.8,6.1,2.4c3.5-0.6,5.1-2.9,5.1-5.4c0-3-2-4.4-6-3.7l-3.1,0.5v-3.2l7.2-8.6
		l-11.6,2v-5l18.3-3.1v4.3L709,267c5.4,0,8.1,2.9,8.1,7.4c0,5.5-3.8,10.5-11,11.7C701.5,286.9,698.1,285.5,696.1,282.8z"/>
	<path class="st7" d="M729.9,281.4v-22.9l-4.6,5.4l-3.3-3.2l7.8-8.9l5.7-1v29.6L729.9,281.4z"/>
	<path class="st7" d="M743.7,264.2c0-8.9,4.8-16.3,11.3-17.4c6.7-1.2,11.6,4.6,11.6,13.4c0.1,8.9-4.7,16.3-11.3,17.4
		C748.6,278.8,743.7,273.1,743.7,264.2z M761.1,261.3c0-6-2.4-9.7-6-9.1c-3.4,0.6-5.8,5.1-5.8,11.1c0,6,2.4,9.7,5.9,9.1
		C758.7,271.8,761.1,267.3,761.1,261.3z"/>
	<path class="st7" d="M774.6,279.1l-4.7,0.8l2.6-12.2l5.9-1L774.6,279.1z"/>
	<path class="st7" d="M784.9,272l11-26.5l-13,2.2v-5l18.9-3.2v4.4l-10.9,27L784.9,272z"/>
	<path class="st7" d="M816.9,260.8l-13.8,2.4v-4.9l14.2-21.4l5-0.9v19l4.1-0.7v4.9l-4.1,0.7v5.7l-5.4,0.9V260.8L816.9,260.8z
		 M816.9,244.3l-8.6,13.1l8.6-1.5V244.3z"/>
	<path class="st7" d="M851.2,241.5c0,3.2-1,5.7-4.7,11.9l-5.9,9.5l-6.4,1.1l6.6-11c-0.2,0.1-0.4,0.1-0.5,0.1
		c-6.5,1.1-10.7-2.8-10.7-8c0-6,4.4-11.3,10.7-12.4C846.6,231.7,851.2,235.6,851.2,241.5z M845.7,242.4c0-3-2.3-4.9-5.2-4.4
		c-3,0.5-5.2,3.2-5.2,6.1s2.2,4.9,5.2,4.4C843.4,248.1,845.7,245.4,845.7,242.4z"/>
</g>
</svg>
